<svg width="100mm" height="100mm" version="1.1" viewBox="0 0 105 105" xmlns="http://www.w3.org/2000/svg">
 <g transform="translate(7 10)">
  <g transform="matrix(2 0 0 -2 100 50)">
   <g transform="matrix(1.844 0 0 1.845 -1210 -12749)">
    <g transform="translate(631 6903)">
     <path d="m0 0h22.32c.163.502.246 1.027.246 1.568 0 2.436-1.731 4.536-4.119 4.996l-8.785 1.457v9.936h-9.664zm23.64-2h-25.64v21.96h13.66v-10.24l7.148-1.186c3.335-.636 5.756-3.564 5.756-6.963 0-1.047-.222-2.054-.663-2.993z" fill="#f96400"/>
    </g>
    <path d="m641.7 6915h-5.92v2h5.92z" fill="#f96400"/>
    <path d="m654.4 6902h-24.42v2h24.42z" fill="#f96400"/>
   </g>
  </g>
 </g>
</svg>
