<svg width="100mm" height="100mm" version="1.1" viewBox="0 0 100 100" xmlns="http://www.w3.org/2000/svg">
 <g transform="translate(-.003687 .004342)">
  <g transform="matrix(2 0 0 -2 100 50)">
   <g transform="matrix(1.898 0 0 1.878 -1468 -12980)">
    <path d="m752.8 6900h15.5v22.09h-15.5zm17.5-2h-19.5v26.09h19.5z" fill="#f96400"/>
    <g transform="translate(760.5 6919)">
     <path d="m0 0c-.61 0-1.107-.496-1.107-1.105 0-.612.497-1.11 1.107-1.11s1.107.498 1.107 1.11c0 .609-.497 1.105-1.107 1.105m0-4.215c-1.714 0-3.107 1.395-3.107 3.11 0 1.711 1.393 3.105 3.107 3.105s3.107-1.394 3.107-3.105c0-1.715-1.393-3.11-3.107-3.11" fill="#f96400"/>
    </g>
    <g transform="translate(760.5 6912)">
     <path d="m0 0c-2.341 0-4.246-1.905-4.246-4.246 0-2.34 1.905-4.244 4.246-4.244 2.343 0 4.248 1.904 4.248 4.244 0 2.341-1.905 4.246-4.248 4.246m0-10.49c-3.444 0-6.246 2.801-6.246 6.244 0 3.444 2.802 6.246 6.246 6.246 3.445 0 6.248-2.802 6.248-6.246 0-3.443-2.803-6.244-6.248-6.244" fill="#f96400"/>
    </g>
   </g>
  </g>
 </g>
</svg>
