<svg width="100mm" height="100mm" version="1.1" viewBox="0 0 100 100" xmlns="http://www.w3.org/2000/svg">
 <g transform="translate(-.003687 .004342)">
  <g transform="matrix(2 0 0 -2 100 50)">
   <g transform="matrix(1.504 0 0 1.515 -897.9 -10470)">
    <g transform="translate(580.3 6899)">
     <path d="m0 0 1.602-1.373c1.428 3.603 2.265 10.59 2.265 15.95 0 5.566-2.616 9.127-3.864 10.51-1.245-1.39-3.866-4.972-3.866-10.51 0-5.354.836-12.34 2.262-15.95zm-2.215-4.534-.599 1.055c-1.981 3.48-3.049 11.9-3.049 18.05 0 8.193 5.005 12.51 5.218 12.69l.645.544.645-.544c.213-.18 5.222-4.497 5.222-12.69 0-6.156-1.07-14.58-3.053-18.06l-.6-1.053-2.214 1.898z" fill="#f96400"/>
    </g>
   </g>
  </g>
 </g>
</svg>
