<svg width="100mm" height="100mm" version="1.1" viewBox="0 0 100 100" xmlns="http://www.w3.org/2000/svg">
 <g transform="translate(-.003687 .004342)">
  <g transform="matrix(2 0 0 -2 100 50)">
   <g transform="matrix(1.447 0 0 1.429 -778.1 -9877)">
    <g transform="translate(537.6 6907)">
     <path d="m0 0h-7.85c-1.156 0-4.071.799-5.704 3.268-1.66 2.512-1.594 5.919.197 10.12l1.839-.784c-1.511-3.548-1.635-6.32-.368-8.237 1.295-1.959 3.63-2.371 4.036-2.371h7.85z" fill="#f96400"/>
    </g>
    <g transform="translate(511.7 6907)">
     <path d="m0 0h-8.702v2h6.7c.192 1.766 1.065 5.436 4.891 8.616 4.805 3.99 10.63 3.621 14.59 2.999l-.312-1.976c-3.579.565-8.82.912-13-2.561-4.388-3.649-4.222-7.984-4.22-8.027z" fill="#f96400"/>
    </g>
   </g>
  </g>
 </g>
</svg>
