<svg xmlns="http://www.w3.org/2000/svg" viewBox="0 0 157.94 223.57"><defs><style>.cls-1{fill:#3a646f;}.cls-2{fill:#73c8de;}.cls-3{fill:#c7e9f2;}</style></defs><title>g_Eszköz 5</title><g id="Réteg_2" data-name="Réteg 2"><g id="Layer_1" data-name="Layer 1"><rect class="cls-1" x="12.63" y="31.58" width="6.32" height="15.37"/><rect class="cls-1" x="25.27" y="31.58" width="6.32" height="15.37"/><rect class="cls-1" x="56.86" y="15.79" width="6.32" height="15.37"/><rect class="cls-1" x="63.18" y="31.58" width="6.32" height="15.37"/><rect class="cls-1" x="82.13" y="16.21" width="6.32" height="15.37"/><rect class="cls-1" x="88.45" y="31.58" width="6.32" height="15.37"/><rect class="cls-1" x="113.72" y="31.58" width="6.32" height="15.37"/><rect class="cls-2" x="25.27" y="62.32" width="6.32" height="15.37"/><rect class="cls-2" x="37.91" y="62.32" width="6.32" height="15.37"/><rect class="cls-2" x="50.54" y="62.32" width="6.32" height="15.37"/><rect class="cls-2" x="75.81" y="62.32" width="6.32" height="15.37"/><rect class="cls-2" x="88.45" y="62.32" width="6.32" height="15.37"/><rect class="cls-1" x="101.08" y="62.32" width="6.32" height="15.37"/><rect class="cls-2" x="113.72" y="62.32" width="6.32" height="15.37"/><rect class="cls-2" x="50.54" y="93.05" width="6.32" height="15.37"/><rect class="cls-2" x="63.18" y="93.05" width="6.32" height="15.37"/><rect class="cls-2" x="75.81" y="93.05" width="6.32" height="15.37"/><rect class="cls-2" x="88.45" y="93.05" width="6.32" height="15.37"/><rect class="cls-2" x="101.08" y="93.05" width="6.32" height="15.37"/><rect class="cls-3" x="50.54" y="123.78" width="6.32" height="15.37"/><rect class="cls-2" x="75.81" y="123.78" width="6.32" height="15.37"/><rect class="cls-3" x="88.45" y="123.78" width="6.32" height="15.37"/><rect class="cls-3" x="63.18" y="154.51" width="6.32" height="15.37"/><rect class="cls-3" x="75.81" y="154.51" width="6.32" height="15.37"/><rect class="cls-3" x="101.08" y="123.78" width="6.32" height="15.37"/><rect class="cls-2" x="113.72" y="93.05" width="6.32" height="15.37"/><rect class="cls-1" x="138.99" y="31.58" width="6.32" height="15.37"/><rect class="cls-2" x="18.95" y="46.95" width="6.32" height="15.37"/><rect class="cls-1" x="31.59" y="46.95" width="6.32" height="15.37"/><rect class="cls-2" x="44.22" y="46.95" width="6.32" height="15.37"/><rect class="cls-2" x="56.86" y="46.95" width="6.32" height="15.37"/><rect class="cls-2" x="69.49" y="46.95" width="6.32" height="15.37"/><rect class="cls-2" x="82.13" y="46.95" width="6.32" height="15.37"/><rect class="cls-2" x="94.76" y="46.95" width="6.32" height="15.37"/><rect class="cls-1" x="107.4" y="46.95" width="6.32" height="15.37"/><rect class="cls-2" x="120.03" y="46.95" width="6.32" height="15.37"/><rect class="cls-2" x="31.59" y="77.68" width="6.32" height="15.37"/><rect class="cls-2" x="44.22" y="77.68" width="6.32" height="15.37"/><rect class="cls-1" x="56.86" y="77.68" width="6.32" height="15.37"/><rect class="cls-2" x="69.49" y="77.68" width="6.32" height="15.37"/><rect class="cls-2" x="82.13" y="77.68" width="6.32" height="15.37"/><rect class="cls-2" x="94.76" y="77.68" width="6.32" height="15.37"/><rect class="cls-2" x="107.4" y="77.68" width="6.32" height="15.37"/><rect class="cls-3" x="44.22" y="108.42" width="6.32" height="15.37"/><rect class="cls-3" x="56.86" y="108.42" width="6.32" height="15.37"/><rect class="cls-3" x="69.49" y="108.42" width="6.32" height="15.37"/><rect class="cls-2" x="82.13" y="108.42" width="6.32" height="15.37"/><rect class="cls-3" x="94.76" y="108.42" width="6.32" height="15.37"/><rect class="cls-3" x="56.86" y="139.15" width="6.32" height="15.37"/><rect class="cls-2" x="69.49" y="139.15" width="6.32" height="15.37"/><rect class="cls-3" x="82.13" y="139.15" width="6.32" height="15.37"/><rect class="cls-3" x="75.81" y="184.57" width="6.32" height="15.37"/><rect class="cls-3" x="69.49" y="169.2" width="6.32" height="15.37"/><rect class="cls-3" x="82.13" y="169.2" width="6.32" height="15.37"/><rect class="cls-3" x="94.76" y="139.15" width="6.32" height="15.37"/><rect class="cls-3" x="107.4" y="108.42" width="6.32" height="15.37"/><rect class="cls-2" x="120.03" y="77.68" width="6.32" height="15.37"/><rect class="cls-2" x="132.67" y="46.95" width="6.32" height="15.37"/><rect class="cls-1" x="126.35" y="16.21" width="6.32" height="15.37"/><rect class="cls-1" x="31.59" y="16.21" width="6.32" height="15.37"/><rect class="cls-1" width="6.32" height="15.37"/><rect class="cls-1" x="107.4" y="0.2" width="6.32" height="15.37"/><rect class="cls-1" x="151.62" y="1.99" width="6.32" height="15.37"/><rect class="cls-2" y="62.32" width="6.32" height="15.37"/><rect class="cls-2" x="145.3" y="16.22" width="6.32" height="15.37"/><path class="cls-3" d="M78.17,223.57c-7.2,0-12.63-3.67-12.63-8.53s5.43-8.53,12.63-8.53,12.64,3.67,12.64,8.53S85.38,223.57,78.17,223.57Zm0-10.74c-4.06,0-6.22,1.7-6.31,2.22.09.5,2.25,2.2,6.31,2.2s6.2-1.68,6.32-2.21C84.37,214.51,82.22,212.83,78.17,212.83Z"/></g></g></svg>