<svg xmlns="http://www.w3.org/2000/svg" viewBox="0 0 266.67 269.77"><defs><style>.cls-1{fill:#f96400;}.cls-2{fill:#f99d00;}</style></defs><title>g_Eszköz 1</title><g id="Réteg_2" data-name="Réteg 2"><g id="Réteg_1" data-name="Réteg 1"><polygon class="cls-1" points="148.14 100.89 143.18 100.89 143.18 81.72 151.61 72.86 155.2 76.28 148.14 83.7 148.14 100.89"/><polygon class="cls-1" points="120.44 114.5 125.4 114.5 125.4 90.4 116.97 81.55 113.38 84.97 120.44 92.39 120.44 114.5"/><rect class="cls-1" x="111.38" y="80.43" width="34.19" height="4.96"/><rect class="cls-1" x="10.88" y="30.43" width="34.19" height="4.96"/><rect class="cls-1" x="152.05" y="100.9" width="34.19" height="4.96"/><polygon class="cls-2" points="164.39 76.9 152.06 76.9 144.87 66.72 128.41 66.72 128.41 61.76 147.44 61.76 154.63 71.94 164.39 71.94 164.39 76.9"/><polygon class="cls-1" points="87.52 64.39 75.19 64.39 68 54.21 33.8 54.21 33.8 49.25 70.57 49.25 77.76 59.43 87.52 59.43 87.52 64.39"/><polygon class="cls-1" points="159.85 152.02 147.53 152.02 140.33 141.84 106.13 141.84 106.13 136.88 142.9 136.88 150.09 147.06 159.85 147.06 159.85 152.02"/><polygon class="cls-2" points="131.41 66.73 119.08 66.73 111.88 56.55 97.28 56.55 97.28 51.59 114.45 51.59 121.64 61.77 131.41 61.77 131.41 66.73"/><polygon class="cls-2" points="83.06 40.48 70.73 40.48 63.54 30.3 48.93 30.3 48.93 25.34 66.11 25.34 73.3 35.52 83.06 35.52 83.06 40.48"/><polygon class="cls-2" points="125.45 126.46 113.12 126.46 105.93 116.28 91.33 116.28 91.33 111.32 108.5 111.32 115.69 121.5 125.45 121.5 125.45 126.46"/><polygon class="cls-2" points="33.8 54.23 33.8 41.89 43.98 34.7 43.98 20.1 48.93 20.1 48.93 37.27 38.76 44.46 38.76 54.23 33.8 54.23"/><polygon class="cls-1" points="53.24 75.17 40.91 75.17 33.72 65 19.11 65 19.11 60.04 36.28 60.04 43.48 70.21 53.24 70.21 53.24 75.17"/><polygon class="cls-1" points="57.6 124.75 57.6 137.08 47.42 144.27 47.42 158.88 42.46 158.88 42.46 141.71 52.64 134.51 52.64 124.75 57.6 124.75"/><polygon class="cls-2" points="79.53 85.39 67.2 85.39 60.01 75.21 43.54 75.21 43.54 70.25 62.57 70.25 69.77 80.43 79.53 80.43 79.53 85.39"/><polygon class="cls-2" points="80.58 134.69 71.25 134.69 64.06 124.52 57.6 124.52 57.6 119.56 66.63 119.56 73.82 129.74 80.58 129.74 80.58 134.69"/><polygon class="cls-1" points="138 136.88 138 124.55 148.18 117.36 148.18 100.89 153.14 100.89 153.14 119.93 142.96 127.12 142.96 136.88 138 136.88"/><polygon class="cls-1" points="0 35.99 0 23.66 10.18 16.46 10.18 0 15.14 0 15.14 19.03 4.96 26.23 4.96 35.99 0 35.99"/><polygon class="cls-1" points="80.17 95.57 92.5 95.57 99.69 85.39 116.16 85.39 116.16 80.43 97.13 80.43 89.93 90.61 80.17 90.61 80.17 95.57"/><rect class="cls-1" x="79.53" y="75.47" width="18.63" height="4.96"/><rect class="cls-1" x="97.28" y="68.39" width="4.96" height="13.04"/><rect class="cls-1" x="86.37" y="103.38" width="4.96" height="13.04"/><rect class="cls-2" x="52.64" y="106.52" width="4.96" height="13.04"/><rect class="cls-2" x="116.16" y="132.68" width="4.96" height="13.04"/><rect class="cls-2" x="67.14" y="84.52" width="4.96" height="13.04"/><rect class="cls-2" x="10.88" y="78.55" width="4.96" height="13.04"/><rect class="cls-1" x="80.58" y="116.42" width="4.96" height="13.04"/><polygon class="cls-1" points="258.89 155.28 263.86 155.28 263.86 179.37 255.43 188.22 251.84 184.8 258.89 177.39 258.89 155.28"/><rect class="cls-1" x="249.83" y="184.38" width="16.83" height="4.96"/><rect class="cls-1" x="149.33" y="234.38" width="34.19" height="4.96"/><polygon class="cls-1" points="225.98 205.39 213.65 205.39 206.45 215.56 172.25 215.56 172.25 220.52 209.02 220.52 216.22 210.35 225.98 210.35 225.98 205.39"/><rect class="cls-1" x="244.58" y="127.93" width="22.08" height="4.96"/><polygon class="cls-2" points="266.67 203.04 257.53 203.04 250.34 213.22 235.73 213.22 235.73 218.18 252.9 218.18 260.1 208 266.67 208 266.67 203.04"/><polygon class="cls-2" points="221.51 229.29 209.18 229.29 201.99 239.47 187.39 239.47 187.39 244.43 204.56 244.43 211.75 234.25 221.51 234.25 221.51 229.29"/><polygon class="cls-2" points="263.91 143.32 251.58 143.32 244.38 153.49 229.78 153.49 229.78 158.45 246.95 158.45 254.15 148.28 263.91 148.28 263.91 143.32"/><polygon class="cls-2" points="172.25 215.55 172.25 227.88 182.43 235.07 182.43 249.68 187.39 249.68 187.39 232.5 177.21 225.31 177.21 215.55 172.25 215.55"/><polygon class="cls-1" points="191.69 194.6 179.36 194.6 172.17 204.78 157.57 204.78 157.57 209.74 174.74 209.74 181.93 199.56 191.69 199.56 191.69 194.6"/><polygon class="cls-1" points="196.05 145.02 196.05 132.69 185.87 125.5 185.87 110.9 180.91 110.9 180.91 128.07 191.09 135.26 191.09 145.02 196.05 145.02"/><polygon class="cls-2" points="217.98 184.38 205.65 184.38 198.46 194.56 182 194.56 182 199.52 201.03 199.52 208.22 189.34 217.98 189.34 217.98 184.38"/><polygon class="cls-2" points="219.03 135.08 209.71 135.08 202.51 145.26 196.05 145.26 196.05 150.22 205.08 150.22 212.27 140.04 219.03 140.04 219.03 135.08"/><polygon class="cls-1" points="138.45 233.79 138.45 246.12 148.63 253.31 148.63 269.77 153.59 269.77 153.59 250.74 143.41 243.55 143.41 233.79 138.45 233.79"/><polygon class="cls-1" points="218.62 174.21 230.95 174.21 238.15 184.38 254.61 184.38 254.61 189.34 235.58 189.34 228.38 179.17 218.62 179.17 218.62 174.21"/><rect class="cls-1" x="217.98" y="189.34" width="18.63" height="4.96"/><rect class="cls-1" x="235.73" y="188.34" width="4.96" height="13.04"/><rect class="cls-1" x="224.82" y="153.36" width="4.96" height="13.04"/><rect class="cls-2" x="191.09" y="150.21" width="4.96" height="13.04"/><rect class="cls-2" x="254.61" y="124.05" width="4.96" height="13.04"/><rect class="cls-2" x="205.59" y="172.22" width="4.96" height="13.04"/><rect class="cls-2" x="149.33" y="178.18" width="4.96" height="13.04"/><rect class="cls-1" x="219.04" y="140.31" width="4.96" height="13.04"/></g></g></svg>