<svg xmlns="http://www.w3.org/2000/svg" viewBox="0 0 1183.59 691.94"><defs><style>.cls-1{fill:#abdeeb;opacity:0.2;}.cls-2{font-size:24px;}.cls-2,.cls-4,.cls-6,.cls-7{fill:#f96400;}.cls-2,.cls-6,.cls-7{font-family:Montserrat-Black, Montserrat;font-weight:800;}.cls-3{fill:none;stroke:#fff;stroke-miterlimit:10;stroke-width:4px;}.cls-5{fill:#ff5100;}.cls-6,.cls-7{font-size:13px;}.cls-6{letter-spacing:0.04em;}.cls-7{letter-spacing:0.04em;}</style></defs><g id="Réteg_2" data-name="Réteg 2"><g id="Layer_1" data-name="Layer 1"><path class="cls-1" d="M139.73,253.34l-.2,0-.53-.39-.07,1.08.27.83.34.34.48.08.2-.66.42-.22.36.25.37-.43.59-.61.31-.73-.38-.06-.45.32-.29-.05-.23-.43-.2.66-.22.17-.32.14-.25.36,0-.29Zm-1.49,1.93-.32-.45-.75-.9-.9.74-.21.06-.27-.14-.17,1.06.4,0,.37.74.48.07-.2.66-.7.09-.45.33.43.36.94-.25.87-.55,0-.2,0-.39.26-.35ZM123,224.87l.46-.42.26-.45,0-.39-1.15.41-1,1,.64-.29.5-.12ZM768,451.51l-1-.25-.72-.41-.48-.07-.11-.51-.37.43.18.13-.11.68-.17-.14-.24.26-.06.4.46.17.47.75.29-.05.54.38.92-.15.31-.74,0-.39ZM133.6,247.25l1.61-.24.15-.27-.28-.75.06-.38,1.31-.77.48-.51,1-.25.17-.46-.52-.37-3.17,1.95-1,1.23Zm8.11,18.41,1.29-1.28.29.05.42.37,4.76-.13,0-.79-2-.91-3.54.62-.24-.33-.47-.17-.17.46.1.6-.58,1.2ZM560.34,553.43l-.49,1.2.33.44,5.32-5.65.29-.55-1.11.82Zm-4.69,5.36-.7.67.31.54H556l2.21-2.11-.25-.33Zm-25.83-4.2-.65,2.27.41.45.66-1.67.15-1.56Zm23.61,5.81-.74.28-.56.41,3.28-.17-.52-.48Zm-8.1.79-.05.29,5.56-.31-3.34,0Zm6,.06.4,0-.18,0Zm-12.72-1.73-.56,1-3.3.36,7.91.37.24-.26-.58-.69Zm-24.51-2.59.25.33,2.13.82.93-.24-2.2-.45Zm-4.9-.78-4.78.32-.06.38,6.27.21-.13-.41Zm10.5,2.15.24.33,7.1,1.13-3.57-1.06ZM788.84,117.23l-.11.08h.59Zm-258.35-70,1.71-.81.48-1.8-.51-.58-1.5-2.89-.87.44-.31,3.21ZM468.32,561.78l-1-.35-.6.09-1.48.65-2.67,1.94-.42,1.42,3.54-.63.88,0,.61.59-.08,1.07-.52.8-.69.59.51-.12,1.43-1.55.78-1.84.15-1.55Zm15.59-417.66-.14,1.46.31,1.22.56.79.91.44,1.07-.52.09,0,.34-2.12-.76-2.68-.6-1.18-.47-1.35L484,138.33l-.59.6.34,2.81ZM269,578.35l.52-.81-.14-.32-1.85-.2-1.66.54-.5,1.88.26,2.11.28,1.32.15,1.6.47.77.93-.93.94-1.54.86-1.73-.08-2ZM831.3,370.56,830,369.28l.22-1.35.72-2.05.87-3.71.61-3.84.24-2.72-3.57,3.29-2.89,4-.31.64-.76.47-1.65,2.3-.86.46-.22-.43-.36-.85-.46-.85-.7-.5-2.41-.38.77-1.08.7-.67.74-.38.79-.07.18-1.15-1.13-1.46-6.15.3.21-1.35,2.55-.57,2.64.13,3.09-.9.51-.7.11-.68,0-.87.38-1.13,1.57-1.82L826,350l-.68-.71-2.87-.45-5.5.5-11.51-3.2-9.23.5-2-2.28,4.71.75,4.6-.46,10.28,1.63,10-1,1.9-.78,3.87-4.51,2-1.27-.6-3-1.59-2.42-3.35-3.1-2.2-1-7.7.75-3.7-.88-12.82,2.6-.88-1.91,2.12-.95,6.63-.23,3.5-1.51,1.72-.32,3.84.61,2.58-.67,2-1.75.29-3.11-5.62-3.05-1.66-1.94,3.33-1.14,6.76,2.15,2.89-1.51.32-2,.57-1.68.21-1.34-.58-1.28,2.89-1.51.61-.69.26-1.64-.32-3.6,0-1.08,1-1.51,1.72-1.51,1.46-2.42.55-4.05-.35-.93-2.21-3.51-.44-.27-1.12.21-.55-.28v-.58l.19-1.16.09-1.16-.27-.83-2.21-1-2.15,1.14-4.39,4.72-1.14-1.46-.52-1.07-.28-1.42.64-2.16.46-1.61.11-1.36-.5-1.16-1-.56-2.41-.28.18-1.15,1.12-.22.58-1.19.2-1.93-.21-2.3-.73-1.1-1.52-.34-8.69.79-2-.72L791.39,256.4l.55,2.15,1.83,2.75.88,1.91-5.33-5.47-2-.8-1.81.89-11.78,12.81-1.91,2.75-1,1.13-3,2.18L767,277l-.91.74-2.28,3.78-1.19,1.28.87-3,1.31-2.65,1.61-2.11,6.88-6.09,2.16-3.7,4.78-4.06,2.6-4.52,2.48-1.37,4.34-.7-1.16-2-4.29-4L782.64,247l-.3-.52-.18-.73-.33-1.72,0-1.58,2.23-1.61,4.5-7.26-2-3.07-3.28.26L777,233.13,759.82,235l-6.51,2.51-2.91.33-2.47-1.78,1.38-3.12,2.89-3.88,1.75-3.66-4.3,4.15-2.27,1.31-2.34-.18,4.52-3.62,1.87-2.45.42-3.28,2.07-1.93,6.34-3.33,6-5.46,1-.63.5-1.3,2.44-4.25.24-.84.22-2,.14-.86.52-.8,1.11-.81.34-.84.21-2-.1-4.35.15-2.14-.37-.74-1-.37-.94-.93,0-2.27.28-4.29-.61-2.95-1.27-2L767.47,175l-4-.15-7.26,4.77-3.6-.29L748,176.24l-8.6-1.66L738,173.09l1.05-.52,1.68-1.22.78-.56.18-3.62-.74-1.59-4.47-1-1.07-.66-2-2.19,2.11-4,2.29-1.51,4.76.47,1.35-.48,8.44-5.95.9-1.33,1.46-3,.53-2.09-.32-1.12-.15-.92-1.09-3.62-.33-.45-.14-1.59-.81-1.12-1.7-1.05,2.34-3,2.73-1.64,7.29-.71,6.8-3.75,14.53-4,4.3-3.55-15,.18-1.61-1-2.58-3-1.73-.86-6.73.21L758.83,114l-3.47,2.6-1.81,2.18-.94,2.8-1.23,2.16-5.94,2.71-.62,1.38-.37,1.71-.62,1.38-5.67,1.07-9.43-1.49-2.42,1-.77,1.75-.13,2.74-.33,3.88-.86,3.61-1.05,2.89-1.3,2-1.49.75.17.81.13.42.62.39L719.22,152l-1.07-1.94L717,147.2l-2.19-2.31-1.89-3-2-1.3-.6-1.27-.21-1.71.12-2-.9.73-.54.3-.48-.07-.56-1.46-.24-.93-.83-.43-2.88.84-5.54-1.18-1-1.24,1-2.5.72-2-.07-1.4-2.33-1.45-.87-1.32-.88-.73-1,.91-.63-2.85,2.61-1.55,2.23-2.21,4.12-5.56-.7-5.42.18-1.15.46-1.71-.49-1.85-1-1.53-1.28-.71L692,97.94l.25-1,.52-2.08.42-.82-1.44.46-3-1.15-2.89.22-1-.45,1-1.52-.3-.63-.51-1.66-.3-.63,1.87-1.19.18-1.15-.27-.15-.8,0,1-2.91,1.15-1,1.36-.58,1.32-1.46-3.4-2.11-5.41-7.56-3.8,1-.94.35-4-2.6L670.93,69l-1.88.59-.8.75-1.16,3.56-1,.93-.91-.45-.24-2.3,0-.49-1,1.11-1.06,1.71-1.08,1.2L661.48,77l-.4,0-1.67.52-1.48.06-1.16-1.37.52-.2,1.24-1-1.31-.41-.67-1.38-.62-1.68-1-1.14-.72.18-2.52,1.57-1.32.29.11,1.19,0,.79-.14.86v1.19l-.67-.8-.46-1.45V72.44l.62-2.07.25-1.54-1.24-.29-2.26.62-1.1.72-.86,1.73L644,73.4l-.34.82-.81-.42V72.61l.14-1.44-.3-1.25L641,70,639.12,72,638,74.61l1.71,2.83.57,6.39,1,2-.21,1.34L639.51,87l.3,2.51.26.83.48.67-.39.62L639.45,93l-.38.53.78,0,.27.15L639,96.92l.23,1.62,1.84,2.06,0,1.08-.18,1.75-.16,1.65.28.73.45.27.41.45.19.63.81,3.09.55,1.46.24,1.61-.27,2.91-.46,1.71-.78,1.74-.91,1.43-.44.92-.18,1.15-1.56,1L637.66,126l-1.15,2.29-.74,2.83.24,2.21,1.1,2.34,2.25,3.21-.23,1.44-2-.6-2.25-5.09-1.55-2-1.63-.36-7.14,1.63,2.57-2,7.36-3-1.83-.19-3.49,1.51-5.46.91-3.85,2,1.2,1.67.07,1.49-.29,1.83.18,2.59.65,1.47.93,1.63,2.21,2.13-.18,1.15-2.5-1-1.27-3.15-1-3.62-1.77-2.44-.93.34L616,138.57l-2.05,3.61-.61.1-1-3-.85-.83,1.36-1.16,1.28-.59,1.23-.29,1.24.19-2.74-1.31-10,1.16-3,1.69,1,1.33.47.18-1,.92-1,0-.89-.54-.84-1,.2-1.25,1,.16.26-1.64.26-1-1.7-8.54-1-3.7-1.79-1.76-7.57-2L586.39,117l-1.28,3.16-5,1.07-2.46,1.88-2,2.45-.6,1.27.78.72.32,1-.45,2.21-.82,2.13-1,.92-2,.46-2.61,1.55-2.32,2.2-1.37,2.44-.47,2.39-.26,2.81-.26,1-.61,1.38-.63.89-1.49,1.24-.1,2.54-.78,1.85-1.18,1.19-1.1.71-.18,1.15.58,1.29.11,1.28-.42,1.32-.59,1.29-.49-.08-.5-3.62L557,157l-.73-1-12.23-1.75,1.58,1.83,7.17.74-1.54,1-1.88.68-1.81.21-1.52-.34.33,2.91.56,2.65.25,2.79-.85,3.51-.68-2.56-1.35-8.2L543,155.36l-1.06-2-2.2-2.22-.47-2.64-.4-5.56-.63-2.27L536,135.44l-.9-1.13-1.32-1-1.93-3.95-1.12-1.07h-3.15l-.79-.62-.45-1.45-.09-3.85-.44-1.55-3-2-7.91.81-2.61-2.09.34-.33.11-.09,0-.29.18-.57-1.08-.56-3.33-.14-1-.54L506,113.05l-1-.74-6.74-1.56L497,111l-2.88,5.15-1.78,8.79-.43,8.89,1.28,5.62-.23,1.43-.58-.09-.2,1.26.68,2,.92,4.09,2,1.79.67,2.07-.12,2.54-1.09,2.59.55,1.47,1.91,3.45.86.83.35-.33.94-1.63.46-.42.36.25.13.41,0,.4.05.3.48.67,1,3.61.35.25.62-.19.49.07.07.71-.5,2.58v.59l.89,9.29-.17,2.93-1,3.38-.47.52-1.54,1-.51.7-.62,2-.21,1.34,0,1.18-.28,1.74-.46,1-.51.79-.4,1.23.05,2.17.37.85,1.33,1.49.48.76.41,2.33.13,3.48-.43,3.37-1.32,2.15-1.18-.68-.54-2.74.13-3.33.78-2.43-3-4.41-1.69-3.61-.6-.59-.08-1.3,1.23-7.78-.16-1.5-.9-3.6,0-2.15,1-5.15.06-1.58-.52-2.34-.37-.76-.64-.29-1.47,0-.53-.38-.22-.52,0-.88-.27-2.61-.13-2.29-.28-2-1.49-1.72-.77-3.27-.64-1.48-.68-.8-5.52-1.76-3.11-2.76-5.25-2.31,0-1.46,1.1-3.19,2.33-5.43-.4-3,0-3.93-.25-3.38-.92-1.63-.86-.82-.76-1.41-.84-.91-1.08.61-.94.93-1.16.51-1.11.12-.94-.25,3-4.45,1.43-2.83-.56-1.46-1.25-1.39-1.23-2.75L466.6,108l-2.14-.84-6.39,4.89-.87,0,.74-2.84,1.89-3.84,1-2.69-3.55-2.53-2.05-.72-1.52.84.18.82,0,2-2.36,3.76-1.33,1.47-1.53.35,1.54-6L448,101l-7.24,1.51-3.07,2-.95,1-.8,1.94-1.57,4.28-.86,1.14-.2,1.25.33.34.64.9.35.35-.19,1.15-.48-.08.1,1.89.27,1.42.5,1.16.81,1.13-1.47-.64-2.16-3.2-1.44-.82.58-1.78.4-.71-.71-.42-.71.09-.66.39-.69.67-.41,3.19-1.86-.69-3.12-3.35-10.45.11L408.24,117l-1.61,1.53-1,1.42-.46.41L405,121l.15,4.05.28,2,.53,1.56.59,1.27-1.49,1.94-1.69,1.3-1.68.72-1.39.08-1.07.52-.92,1.43-.56,1.68-.21,1.34,3.7,5.82.09,1.28,1.09,6.78.43,4.8-.22,4.49-.84,4.7-1.33,5.3-1.71,5.14-1.08,2.49-.95,1-1.6.72-.65-.19-.05-1.58.34-.84.66-.48.83-.27-2.23-.25-.81-.42-.49-.68L392,175l-.24-.34-2.26-.65-.81,1.36-1.11,3.86-1.17-2.54-3.83-1.9-1.27-2.56-.14-2.19.4-5.06.07-2.35-.35-1.44-1.05-4V156l.12-1.36,0-1.39-.26-1.41-.34-.35-1,0-.4-.56-.72-1.69-.72-.41-1,0-2.76-2.51-4-1.32L368,143.38l.64-3.35-1.07-2.62-1.6-2.33-1-2.73.38-.53.61-1.37.4-.64-.75-.9-.21-1.21-.05-1.49-.22-1.71-2.2-6.66-.61-2.94-.31-3-.36-1.51-.64-.91.8-1.34-1.66-1.35-1.21-1.67-.68-2.48.25-4.08-1.88,1.27-1.7-.46-3.51-2-1.37.58-3.34,3-1.58.65-2.63-.82-1,.14-.86.55L339,102.83l-.81.17-3.12-.89-1.88.09-1.75,1.1.58,2.57-.87,3-1.52,2.72-1.44,1.64,1.09,1.84.75,2.1.48,2.53,0,3.25-.54,6.52.3,1.82,1.83,7.08,1,6.36-.09,5.49-2.32,1.6-.23,1.45,1.53,2.21,1.37,3.76.83,4.67-.18,4.9-.67,2.94-.9,2.52-1.06,1.8-1.09.62-1.24,1-.33,2.7.71,2.39,1.57.64-1.61.23-1.44-.23-.78.57-.6,1.28-.56,3-.51,1.29-1.49,2-3,3.27-1.26,2.36.42,2.93-.82,2-1,2.1-.18,3-.73-2.88,1.59-8.11-.7-1.88-1.1.21-2.39,1.4-1.13.21-2.43-.19-2.74.55.95,1.43,1.2.49,2.63.22.79.62.75,2.68.85.92-1.5,3.8-.84,2.82-1,1.81-1.91.89-1,0-.93-.35-.88-.63-.76-.82-.68-1.28-.22-1.12-.09-1.3-.25-1.51-.4-.56-1.31-1.1-.3.06.16-1.05.39-1.23.62-1.37,0-2.17.17-1.05,0-.79-.49-1.25-1.6-1.74-1.17,1.2-.57,3,.33,3.5-1.84.4-.55-2.06.5-3.17,1.46-3-.24-2.8.69-3.74,1.74-7.29.27-.45.31-.05.24-.26.06-1.66-.26-.25-1,.06-.26-.15-1.12-2.35-.68-.7-1,.05-.57,1.77-1.18.61-1.5.15-1.57.54-5.71,5.6-9.72,5.45-3,4.14-.48,1.11-1.62,5.26-.33.83-1.23,1.58-.54.9-.74,2.75-.47,3-.48,4.37-.2,5.58.39,6.17.93,6,1.33,4.64-.78,1.25-.9-1.13L269,232.46l-.37-1.43-.18-1.31L267,224.86l-1.08-8.16-1.11-3.52-2.09-1.7-1.38,2.43-.62,5.82-.58,14.19-.4,2.5-.92,2.7-.75,1.06-.94.93-.66,1.08.13,1.6-.57.5-1.47,1.83.32,1.73.9,3,.39,1.92,0,1.37-.28,3,.45,4.61-1,2.4-1.41.86-1.08-1.25.18-1.16,1.07-3.07-.2-3.68-1.05-3.32-1.18-1.86.17-.46,0-.2L252,250l.35-.34-.78-2-1.44-10.08.29-1.83,1-3.69.44-2.77.16-4.11.37-2.31.5-1.9,0-1.37-1-.84,1-3-.48-1.94-2.43-3.24-1.54-4-1-1.15-1.68-.66-1.72.32-3.4,2.22L232.43,209l.2-1.24,3.87-.87,5.19-4.1,4.86-5.83,2.7-6.47-.37-8.23-4.19.32-5.37,3.48-4,1.54.2-1.25,1.81-1.48,4.93-5.62,1.18-1.89-.67-2.57-2-1.49-12.83-1.75-1.14-1.47-.31-.53-.75-.91-.63-1.57v-2.56l-.13-1-.54-1.07-1-1.44,1.2-1.39.76-1.06.44-1.51.16-2.24-.25-.33-1.14-3.33-.12-.51-1.06-1.35-3.18-3-1.39-.52,2.42-1,2.5.4,2.11,1.61,1.49,3-.14,1.55.54,2.75,1,2.72,1.27,1.28.2.63,1,2.61.53,1,10.3,2.12,2.58-1.35,7.4-6.91-1-1.34-3.62-3.24-1.19-.57-3,.11-1.62-.35.22-1.34,8.25-1.75,2.52-1.67,1.75-2.28,5.26-8.32.22-1.35-3.25-3.17,2.52-1,1.26-2.35.31-3.2-.54-4-1.74-2-8.65,1.09.2-1.25,3.66-2,1.21-1.38-2-1.69-7.42.2-4.7,1.72-2.16,0-1-2.84,1.14.18,8.45-1.11,2.39-1.39,10.91.74-.31-4.2-1-2.42-1.67-1.33-2.13-.84-8.63,1-1.66-1.94L244,98l-.17-1.41.77-1.75.71-.18,1.85-1.09,1.18-1.29-1.44-.82-.18-.72-.06-1.49-.16-1.49-.46-.77-3.42-.24-2.89.92-1.13.9.94,4L239.43,94l-.5,3.17-.63.88-1.14,1-1.39.67-1,.13.9-1.92L237,96l1.06-2.3.22-2.61-.75-1.51-1.39.07-1.48.66h-1.28l-.9-1.14-.29-1.32.19-3.72.4-3.08,0,.09.06-1-.27-2L232.4,77l1.29-.78.37-2.31-.4-2.42-1.21-1.08L233,68.6l.39-.63L229,64.62l-.87,0-1.7.72-.76-.12-.5-.58L224.46,63l-3.08-3.55-1.1-.47-1.25.4-1.2.79-1.07.42-.94-.83,5.12-3.13,1-1.22-2.34-5.69-.47-.77-.59-.69-.66-.1L217,49.32l-1.25-.79-5.57-.3.83-2.72-.46-1.45-1.31.18-1.53,2.21-.79,1.27-.7-.6-.36-1.44-.53-1-1.16-.18-1.34.37-1.4.77-1.24,1-.76-1.41.23-1.43L201,42.64l.13-1.46-.46-1.44-.23-1,.32-2,.36-1.61.7-.68,1.38.61.19-1.24-3.14-1.3-.78-1.29,1.36-1.76-1.35-3.86-5.69-4.45-.91-3,.05-4.62-1.24-4-2-2.78-2.34-.76.3,1.82,1.81,1.67.26,2-.76,2.35-1.2.1-4.87-3.43-1.94-3.26-2.18-2.42-3.15.59,0,2,.08.71-2,1.06-3.53,3-2,.08-1.37-1.3L164.5,7l-3.24-1.89L159,2l-1.35-.8L150.06,0l3.31,4,1,.76,1.1,1.16v2l-.91,1.34-1.55-.74-.14-1L152.6,5l-.36-.84-.54-.28L143.12,4l.41,1.05.24,1,.13,2.3-2.11-1.61-2.06-2.59-2.21-1.54L134.91,4.2l1.16,3.23,1.78,3.05,2.12,2.2,2.14.74-2.58,5.69-3.33,0-3.43-2-3-.28-1.33,1.56.28,1.34,1.06,1.43,1.67,3.13,2.9,2.23,11.58,5.18,2.18-1.91.63-.29,4-5,1.62-1.52,1.43-.94,2.75-.65-.22,1.44L157,24l-1.57,2.41-.88,2.43.8,1.2h3.15l1.57-.54,7.09-5.67,2.78-1.33,3.48-.24-3.91,1.06-1.24,1-.56,1.09-1,3.78-.51,1.31-1.84,1.68-.89,1.23-.22,2,.6.59,3.43,1.32,4.69.26,4.17-1.51,3.5-2.8,1-.23,1.57,1.24L182,35.78l-1.23-.19-1.37.47-1.24,1-1.09,1.31-1.45,1-1.26-.1-.33.24,1.27,1.87,2.92,2.14h10.63l-2,1.17-3.9-.23-3.9,2.24-2,.18-3.75-.6.38,2.62.16.81.38.76-1.25,1-1-.45-1.68-2.44-.17-.81-.15-.92-.27-.82-.8-.52-2.11-.33-7.66-3.88-2.39-.48-11.93,1.36L140.92,44l1.84,8.86,4.47,6.62,17,10.77,3.51,5.19,5.94,4.18,1.41-.26,1.78-1.21,4-1.31,1.55.14-1.28,2.45-1.45.47-1.55-.14-1.57.52L175.26,82l-.82,2-.74,2.25-1.15,2.29,1.52.93,1.33,2.18,1,2.83.65,2.75.14,3.47-.08,4.23.29,3.78,1.25,2-.21,1.35-2.7,1.54-4.73,10-3.15,1.16.18-1.15,1.12-2,2.38-3.27.92-2,1.51-6.46.2-1.25-.52-.47L173,109.5l-.69,1.86-.25,1-.91-1,.29-1.23.7-1.36.25-1.54-.33-1.63-.48-.08-.56.41-.55-.28-.77-2.6-.44-2.82-.78-1.9-1.67,0-.23,1.44-1.07,3.58-7.25,12.82-3,6.92-1,.14-.34-1.63,1.32-3.34,5.68-10.33-.21-.52-.09-.7.73-.87.77-1.75.62-2.07,1-3.88,0-.88-.38-.74-1.94-5.74-2.38-3.62L158.57,86l-.24-1.61.23-2.63-.4-.64-5.11-1.3-.43.22-.9,1.34-1.27,3-1.39,4.4-1,4.77-.58,4.24-4,8.62.05-2.75,1.45-4.2,1.22-5.22-.25-5.26-1,.44-1.51,2.7-2.2,4.58-1.51,1.43-1.56.56-3.11-.3,2.77-1.34,2.77-3.21,2.53-4.13,2-4.11-1-1.43-1.4.86-1.55,1.63-1.22.89.19-.56.52-.8-.38-4.49L140,80.24l-.77-.7-.95.33-.69,1.27-.65,1.67-.63,1.47-1.93,2.25-5.06,4.53-2.06,2.43-.47-.08,1.06-1.8,4.41-6,.35-.33,1.72-2.19.69-1.27.2-1.85.1-3.13.44-2.79,0-1.08-1-2.23L134,68.27,133.43,67l-.8-.61L131,66.8l-4.7,5.36.16-4.11.84-2.82-.81-3.58L125,58.47,123.69,57l-2.23-.85-6.87-7-11.47-5.36-2,.57-.49,2.48-1.41.87-3.21-.31-1.34.37L93.24,49l-1.33,1.56-1,1.32-.23,1.44,1.52,1.62,7.43,1,1.55,1.33,2.2,5.47,1.56,1.92L99.1,58l-4.95-1.68L87.41,56l-2.82,1.62,2,4.06,3.76,4.83L92.17,70l.76.81,1.76.67L98,73.77l1.65.76,1.35,1.4,1.48,6.25,1,2.22-.18,1.15-1.44-.82-1.08-1.94-.56-2.65.09-3-2.94,1.11-4-1.7L80.92,65.86l-3.71-1.48L73.86,65l-1.51,2-1,3-.92,5.77.43,1.65,2.37,4.9,3,3.93,1.52.93.79,1.89,1.82,1.57L83.75,97l1.52,1.62,7.58,3.17L96,105.57l1.73,1.55,6.24,1.59,1.62,2.81,6,3.12-2.8.84L106,113.76l-4.84-4.91-3.17-.5L89.2,103l-5,.68-1.41-.41-1.25-1.39-1.94-3.35-1.28-1.19L72.82,95.2l-3.91-3.28-1.56-.15L63.49,95l-1.18,5.62.67,6.31,1.69,5.49,3.63,5.7.75,2.09.84.91,4.16-.81,2.3,2.92,3.76,2.37,20.58,3.77,3.74-2.48,2.58-.76,4.22.07L110,127.47l-4,1.92-.19,1.16.67.11.44.36.81,1.12-1.77,1.19-1.61-.45-3.15-1.78-1.61.15-2.3,1.49-6.39-.12-1-1.24-1-.65-5,1.46-.93.85.34,2.22,1.09,2.44.86,1.41,2.67,2.38,3.91,2,9.26.67-1.24,1H98.57l-1.21-.39H96.08l-3.84,1.84-1.37-.1.31,1.81.32.45.62.49-.22,1.35-1.92.29-4-1.72-1.13,1.6-1-1.84-.13-1-3.87,3.93-2,1.16-1.32-1,1.11-2.67,1.07-1.8.73-2.06-.25-3.39-.43-1-1.77-1.87-.91-3-.61-1.09-29.4-23.27-3.24-.71-3.72,2.36.51,2.35-.25,2.23L39,120.27l-.19,2.43L41,129.64,43,133.91l1.47,1.91,3.35,1.91L51.37,141l3.16,1.78,1.86,2,1.73,2.73,1,3.12-2.28-1.15L50,143.88l-11.15-4.23.92,2.9,1.89,3.66,1.53,4L46.3,155l1.41,1,.85,2.1.72,2.29,1.07,1.94,1.32,1,1.66.75,3.69.29L52.33,166l-2.24-.14L48,164.33l-1.07-1.94-.82-2.3-1-1.92L40,155.87l-2.68-2.39-3.37-6-1.23-1-2.26-.66-6.69-5.58-1.86-.7-1.12.23-1.63,1.6-2.55,1.17-.81,2.63-.52,3.27-.75,2.83-1.6,1.43-5,2.16-1.16,1.1-1.08,1.8-2,1.46L0,160.67,1.24,164l2.71.92L26,166.07l11,6.77,1.4,3,1.14-2.28,1.76.08,1.19,1.86-.73,3.33-.55-.87-.52-.48-1.42-.32.8,1.21.58,1.27,0,1.47-.61,1.39-.21,1.34,2.83,2.62,3.38,1,14.67-1.81,3.67-4.54.77-.48.61-.1.4-.72.45-2.2,2.09,1.71,10.71-.47,4.36-2.65,2.37-.61-.36-.84-.15-.32-.26-.24.9-.65.42-.23.52-.11.47.07.51,1.76.74,1.59,1.06.77,1.22.38,2,1.29,5,1.39,1.21-.2,1.32-.88,2.19-2.6,1.13-.91.21-1.34-1.06-2.63.72-3.92,1.82-3.45,2.31-.92-.18,1.15-.62,2.66,1.85,2.65,3.9,2.7,2.4-.81,4.7-.43,2-1.86.59-1.78,1.3-5.7.39-1.22.64.89.19,1.9,0,2.36.16,2.11,1.37,1.29,2.19-1.43,2.09-3.21,1.13-4.06,2.42,2.16,1,1.55.43,2.23-2.17.65-4.2,4.15-2.12,1.54-.23,1.44,1.91.4h.68l-.27,1.73.84.32,2.73-.45.9.54.74.9.28,1.33-.72,1.46-.18,1.16,1.32.31,1.32,1,1.21.48,1.33-1,.13-14.46-.4-2.42-.05-4.06.07-1.06.56-1,.53-.31,1.25.2,1.79,1.76.71-.09.47-.51.42-.23.61,1.18L143.2,165l-1.06,3-.18,3,.89,6.16.35,1.52.45.86.95.25,1-.53.8-1.35,1.25-4.73.63.4.89,3.67.86,2,1,.05,1-1.12,2.05-3,.62-1.38.24-1.53-.63-4.13.21-1.94.43-2.1,0-.89,1.23-1.57.61,2.36.49,6.88.46,3.22-.36,2.3-.64,2.17-.47,3,.35,3.4,1,.77,4.51-1.07,1.28-1.27.63-1.47-.73-1.6.22-1.44,1.42.42.69,1.19.85.92,1.62-.33,2.45-2.37,1.33-1,1.56.15-.22,1.35-1.18,1.18-3.62,1.79-.2,1.26,5.43.45,2.69-.75,2.95-1.79,7-7.27,2.31-.32-1.84,1.09-1,.82-.88,1.23-.45,1.6-.35,2.22-.49,1.88-1,.74-1.91.28-3.95,1.93-8.75.49-1.83,1-2,2.73.22,1.72,2.91,2.13,3.86,4.85,1.5,3.58,1.26.8,2.92.16.8-.66.95-1.62.75-1.66.42-.81.71-.09.88-.55,1.61-1.52,1.48-1.83,1-2.2.61-2.57.1-3.13.74,1.59.73,4.66.42,1.73.66.8,1.13.38.79-.67-.07-2.67,1.13.28,1.08.07,1.12-.31,1.1-.61-.06,2.84.73,2.18,2.38,3-2,2-2,2.63,1.51.45,4.75-.74,5.28,2.12,2.69.43,7.6-1.35-5.17,2.13-10.39,1.6-5.16,2,.25.92.24,2.89-1.14-.29L192.86,212l-1.13-.28-.14.88.17.13.19,0,.16.22-2,1.64-5.31,1.82-3.33,3-8.09,4.43L164.4,225l-2.26,1.22-3,4.05-.78.57-2.72-.92-1.22.29-.3,3.11-1.59,1.33-3.83,1.16-3.13,2.94-1.74,2.39-1.21,2.57,3.89-.87,1.89.5,1.53,1.53-.23,1.44-1.44-.23-.51-.48-.43-1-2,1.26-2.31.33-1.28.58,1.16,2,1.87,1.28,7.19,0,1.18-.61.42-.12.8.52,4.76,5.39,21,7.76,4.11-1,13.1-8.07.21-1.33-.58-.09.2-1.26L200,249l3.42.25,2,2.88-1.28,6.2-4.64,8.81-1.3,2-1.56,1.13-1.32.29-1,.63-1.14,2.28,2.24.75,1.16,2.05-.45,2.2-2.29,1.41h-8.66l-1.81-1.67-1.66,1.12-1.54-.84L178.73,277,177.3,276l-5.77-.92-.84.37-1.42,1.44-.84.37-6.26-4.64-10-3.76-6.57.44-6.29-1.3-1.47.56-.57,2.37-1.54-.24-1.29.68-2.55,2.45,1.39,3.67.68,1.29.86.72-.17,1.06-1.16-.68-2.85-3.79-2.41-1.57-.44-1.54.06-3.54-1.3.78-1.44.36-1.26-.1-.92-.44,1-1,2.51-.89,1.2-1.38v-.69l0-.29.32-1.42-1.11-1.06-1.28-.6.65-.39.61-.79-3.09.3-6.72,5.05-3.38.25-.23,1.43,5.71,0,1,1.05-5,2.45-4.8.43-1.81.89L107,275l-1.23-3.44-1.75-2.05-2.24-.16-2.57,2.54-.54,1-.85,2.23-.65,1-.64.28-1.48.07-.54.31-1.06,1.7-.69,1.87-.25,2.22-.06,2.85-3.24-6.92.83-1.54.77-1.06.78-.57.87,0-.09-1.89-.09-.7,2.47-1.28L96,270.23l.81-1.94-6.1-2-3.27.07L84.85,269l-.58,2.47,0,2.65.21,2.4.08,2-.77,1.76-1.42,1.44-1.54.44-1-1.33-1.74,1.6L77.93,281l.4-2.5v-1.77l-.85-.23-.78,1.15-.82.86-.84-.92,1-2.9-.92-1.14-3.2-.3L72,274l.09.7.11.51.3.64-.2,1.25-6.62-2.33-3.37.65-3.47,4-.89.65-3.14-.7-.91.74-1.71,2.09-.85.36-8.21-2.87-5.51-5-1.6-.45-8.63,1-1.59.73-3.32,2.92-1.64.43-1.28-1.88-.69,1.28.89,8,.76,3.27.91,3,2.43,5.79.22,1.72-.19,3,.63,1,1.08.66.88,1.91,5,4,1.66.06,3.57-1.4,1.79-.1,5.6.68L46.51,309l2.11-4,1-3.49,2.78-2.61,3.14-1.18,1.17.68-1,0-1,.35-1,.62,8.49,4.21,1,0,.85-.46,1-.62.61-.71,1.8-2.07.09-.58,7.67-.55,4.18.95L83.08,305l10.44,2.45,9,1.43,9.47,2.38-.48-.07,2.15.73,3,3.73,2,.52.2-1.26-3.63-3.13-1-1.52,8.07,1.28.58.67.76,1.5.53,1.56.2,1.22-.77.56-1-.06-1.78-.57,1.61,1.64,7.23-.24-1.37-1.3-.54-.28.21-1.34,1.32-.29,2.72-2.22,1.24-.4,4,2,.2-1.25.92-.83.81-.07.48.66.2,1.82.84-1.55.76-1.06.77-.57.9-.06-1,2-2,3.33-.87,1.73,1.54.24-1.44,2.25,4.95.48,2.2,1,1.3,2.37-1.23,1.49-.45.41-.72.19.38,1.33-1.06,1.7-1.07,1.12L142,332.19l-2.6,2.73-1.07.53,1.19,1.86,2.45-1.18,2.7-2.14,2.33-1,2.57-.09,2.71-.95,5.36-3.38-.18,1.15-2.67,2.54-9.54,3-.2,1.25.25.34.72,1.09-1.18.51-1.09.71-1,1.22-.81,1.94,1.64.26-2.16,1.23-1.83-1.56-1.7-2.33-1.78-1.19.63,1.69.69,1.78,1,1.53.88.63.27.73.55,1.57.74,1.5,1.21.48-.18,1.15-1.35,1.66-.73,2.74.12,3,1,2.43,1.72.37,2.27-.63,3.88-2.14-.18,1.15-1.06,1.71-.38.53.77.13.64.29.52.47.46.76-.82.87-.33.24.44,2.14-.71,2.64-1.4,2.63-1.41,2,.82-.17.64-.29.68-.57.82-.86.23,2.9.79,2.48,1.1,1.75,1.16.78h.6l.82-.26.76-.48.4-.62.49-.6,2.78.44.84-1,.27-1,.2-1.26.54-1.59,2.36-3.07.41-.73.45-2.78.71-2.64,1.09-1.9,1.61-.24L164,364.82l-.37,1.71.59,1.88,1.07.66,1.38-.57,2.17-1.92,5-3.14,2.21-.24,2.18,1.13-.1-2.48,1.41-.85,4.19-.92,3.65-2.58.85-.35,1.11-.81,1.14-4.06.82-.85.94-.34,3.71-2.87-.76,1.66-1,1.23-2.33,1.6-.19,1.24,2,0,5.63-3.83,1.94.21,5.64,2.27-.2,1.25-5.9-1.92-1.29.1-1.69,1.29-4.75,2-.21,1.34,8,1.26-.17,1.06-3.39.85,1.2,1.16,1.3,3,.85,1.42,1.29.59,2.74.14,1.08,1.26-6.27-1.4-.76-1.49-.67-2-2-.41-1.46-.73.8-3.22-3.13-.69-1,0-.86.46-1.49,1.34-2.78.74-3.51,3.58L181,364.75l-.19,1.17,1.11-.13.91.45.52,1.05-.05,1.58-4.6-.24-9.34,3-2.21,1.52-.4,1.92-1.35,2.33-.62,1.39-.88,3-.46-.17-.49-.57-.52.11-1,2.61-.39,2.49-.53,2.08-1.3,1.47,1,3.21,1,1.13,1.21-.19,1.61-.83,2.24-.44,6.7,1.85-1.59.74-3.54.52-1.68,1.31-1.46-1.31-1.8.79-3.08,3.26-3.54,2.39-3.46,1.41-.22,1.36,6.41,3.67,3.58,1.06,3.28-2.14,1.28-1.18,3.85-2,1.33-.28.67.11,1.51-.25.75-.37.83-.86.55-1,.35-.94.4-.72,6.61-4.37,6.77-.5,13.8,3.07-.39-.06.16.22.2,0,.08.11-.13.78-1.4.76-.62.19-.77-.12-.17,1.06,1.69,1.15,3.77-1.37-2.68,3.23-1.89.09L192.21,400h-1.87l-1.76.5-3.48,2.11.67.11.56.78,1.43.91-1.44-.23-3.38-1-1.69.13-1.48.55-.93.94-1.93,3.44-2.1,2.71-2.71,2.23-5.25,2.62,0,2.65-1,1.32-2.53,1.68,2.8,1,.71-.77.75-.37.81-.17,2.12.24L172,422l.66,1.48-1,2.91,1.77-.61,2.37,0,2.26.65,1.38,1.21-2.59.87-1.42.85-.82,2,.47,1.35,1.48,0,2.93-1.11-2.18,3.2-2.61-.31-2.55-1.3-2.14.45,1.36,1.4-.75.38L170,436l-1.08,1.22.82,1,.71.5.76.22.89-.06L170.71,440l-1.27-.1-2.18-1.74-.39-.64-.26-.83-.47-.77L155,431.93l-2.6,1.46,2.56.6,2.38,1.76,4,5.17-.52.11-1.2.8,1.44.22-.21,1.35-1.36.48-1.58,0-1.51-.44-1.22-1,1.73-1,.62-.09-1.33-1-2.14-.15-2.15,1.15-1.21,2.66,1.37-.57,2,.81,1.6,1.64,1.14,1.55-.17,1.06-.59.69-.55.31-.45-.27-.52-1.06-2.3,2.68L149.89,452l-6.54.25-4.27,2.66-2.14.45-1-.55-1.74-2-.91-.55-.9.16-3.14,1.76h-3.74l-1.25.39-1.09.71-1.26,1.08-.71,1.37.56,1.46-1.35,1.07-1.9.19-7.44-1.57-1.72-.87-1-2.12,1.15.19-.34-4.68L108,446.83l-1.62-3.5L104,441.08,102.08,438l-1-.55L100,438l-1,1.13-.72,1.36-.11,1.36L98,443.49l-.49,3.66-.41,2-.51,1.39-1.69,3.19,0,3.33,1,2.43,1.43,1.5,1.39.62,1.93-1,.76.12v1.86l-.56.51-3.37-.53-.88,1.24L94,469.93l-1.42,1.55.63,1.58.67.79.53,1,0,2-.4,1.9-.66,1.08-.76,1.06-.77,1.75.79.63.78,2.48.9.63.62-.2.58-.59.51-.71.46-.42,1.84-.4,7.26,2,.88-.05,1-.44,1.65-1.12,2.52-.39,3.19-1.46,1.73.27-1.24,1,1.45,1.42,1.68-1.22,1.78-2,1.81-.89,19.92,8,4.15-.72,1,.26,3.2.32,13.41-2.6,2.44.78,2.12,2.11,2.19,3,2.39,2.35,22.87.47.34-.34.26-.35.24-.26.38.06-.49-3.12,1.54-1.63,2.17-.65,3.62.19,3.38,1,1.49,1.13-.54-2.75-1.76-2-3.57-2.34.17-1.06,1.05-.43,2.81-2.2.84-1,.89-.64,4-.45,1.3.51,3.31,2.69,5.77.91-2.53,1.67-3.39.24-5.89-1.32.12,4.16-.08,1.75-.69,1.26,1.12,2.95,1.56,1.91,1.68,1.17,3,2.92,9.22,5.21,6.18,5.71,2.56,3.75-.19-.71-.4-3,1.92,1.58,2.09-.16,2.06-1.16,3.48-3.38,1.89-2.56.67-2.35-2-1.2.17-1.06,2.7,1.52.37,4.58-1.61,5.16-3.14,3-.17,1.06,1.88.59,5.7-.57L251,516.3l-.3,0-.56-.19-.29,0-.2,1.26,2.12.33-.18,1.15-2.48-.49-1.1.12-.35.93-1.14-.28L245,516.92l-.89-.63-5-.79,4.72,5.07,2.41,1.56,2.88,3.52,3.14,2.57.55-.32.84-1.53.46-1.71.23-2,.35-1.62.68-.57,1.92-.29,1.78-1.3,2.51-2.16,4.05-3.88,1.14-1.5.17-1.06-.08-1.39.78-.56.75.8-.09,2.45-.65,1.58-3,4,5.32,4.38.87,1.32,1.3,3.55,1,1.83-2.45-.68-3.51-5.18L265,520.77l-5.31,0-2.63,1L254.5,524l.5,3,.46.87-.93.84-.33.24.81,4.26,1.81,3.44,4.36,5.42-.6-3-1.1-3-2.07-4.28.17-1.05,1.95.11.69,1.19.34,2.22.79,3.08,1.09,1.85,1.34,1.49,1.19,1.76.66,2.77-2.44-1.47L263,544.7l1.52,1.52,1.29.59,1.39-.66,1.76-1.79-.32.74-.81,2.63.93.35,1.61,1,.93.35-1.34,1-1.29.09-1.18-.58-.92-1.14.93,1.64,10.07,11.64,2.78,1.12,5.87.83-.11-2.37.45.27.16.22.26.83.35-.35.24-.25.23-.26.32-.14,1,2.32,20,4.55L301.7,566l-.05-.9,7.09,2.41,1-.14,1.42-.86.94.25.83.93,0,.87-.68.58-1.09,0,2.06,2.58L325,577.07l8,7.47,6.05,2.23,3.54,3.72.88.63,9.93,3.84,1.89-2,1,1.25,1.23,1,2.77,1.12-.49.62-.42.22-.89,0,2.1,1,6.43-.75,13.89,6.84,3.91.81,16.74-1.88L411.83,600l16.74.09-1.21-.49-1.82-.29-3.15-.69-.12-1.11.19-2.43v-2.46l-.6-1.17-.39-.66-1.17-3.14-.61-1.18.29-.55.35-.34.63-.19-.29-1.33,1.47.63,4.58,4.08,2.1.42,4.33-.59,2.2.45-.19,1.15-2.44-.19-1.09.71-1.35,1.66-1,.83-2.23.43-1.15,1.1,1.94,3.85,5-.39,5.62-3.05,8.35-2.41,4.16-3.29,3.53-4.85,2.84-5.47-1.21.8-5.71-.61.49-1.89v-1.18l-.58-.59-1-.06,1.3-.77,2.09.53.16-1.66,3.06.49-.2.66v.09h-.1l-.33.25,1.82,1.56,2.29-1.41,4.28-5.92-2.21.35-5.95-1.64-1.22.2-1.79,1.38-1,.24-1.18-.69L450.1,568l.63-1.49,1.2-1.29L453.1,567l1.45-.35,1.39-2,.88-3,.78-1.85,1.46-1.73,1.59-.73,1.15.86.91-.83.93-.25,1.92.31.17-1.06-1.34-1.49,2.1.42,1.78,1.18,1.76.67,2.14-1-.06-1.48.06-1,.75-2.25,1.59,2.32,4.68,3.5-.2,1.25-2.24-.16-2.65.57-2.36,1.79-1.37,3.62,11.13-5.52.2-1.25-.19-.63.12-.75,0-1,1,1.34,1.15-.31,1.12-1.5,1-2.32.21,1.81-.29,1.83-.73,1.45-1.07,1.12,7.39-.61,11-1.89,10.35-4.46-.18,3,.75.22,1.26-1.09,1.18-.59,2.45,2.56,1.08.56,5.46,1.06,2.88-.23,1.75-1.7-1-1.53-.18-1.91-.07-2.08-.68-1.87,1.12-2.09,1.29-.09,1.34.21,1.44-1-.44-1.65.2-1.83.9-4.49.54-.9.75.91.64,1.48.19.72,0,1.09-.49,2.48-1.12,4.55.2,0,.15.91-.15,1-.76.37-.33.24-.3.65-.52,1.49.24,1.52-.37,1.71-1.48,3.81,1.58,0,1.37-.57.57-1.08-.81-1.71.68-1.87.45-2.19L535,547l.47-1.11.39,1.24.26,2.11,0,1.59L535,555.23l0,1.55,1,.75.65-1,.36-2.3.22-3.22.41-2.6.43-1.5.66-.39,1.17.68.65.9,2.26,4.39,1.15,1.46.1.61-.38,2.4-.09,1.16.3.64,1-.63.72-2,.38-2.4v-1.87l1.3-.09,1.57-.63L548,551l-.59-.58-.55-.88-.41-1.15,1.11,1.65,1.47.73,10.75-1.35,13.05-7.78-.8,1.94-1,1.22-1.1.72-1.06.42,2.52-.88,4.55-5.19,6.24-3.94,1.29-1.26,2.65-3.72-.92.84-1.1.81-1.24-.3,1.6-2.7,2.44-2.27,4.63-2.52-.88,2.42,1.71-.22,5.11-2.43.17-1.07-1-.17.18-1.15,1.06-1.11.88-.54.72.4.49,1.86.81-1.36.91-.74,2.07-1.24,3.09-2.77.85-.36,1.72-.31,5.57-3.45.17-1.07-3.65-.57,3.18-2.06,20.75-2.91,2.94-1.7-1.39-1.3-6.69,1.21,7.69-4.4,2.59-2.64,0,.89.36.84.26.93,2.27-1.31,4.88-1,4.38.3,5.19-1.05,2.19-1.33-2.5-.39-1.09-.58-.91-1.12,1.93-1,4,1.84,2.07-.66,1.54-2.33,1.17-3,.14-2.75-1.31-1.67.21-1.36.52,1.08.63.4.72-.19.82-.86-.42-1.64-.76-4.56-.55-2.14-1.42-1-2.4-1.56-1.18-1.27,1.83.88,2.77,1.72,1.27,2,1.39,1.8,1.39,3.67.55,3.93L669.45,487l-.15,1,.92,1,2.07,1.21.94.93.09-1.85-.08-1.3-.35-.93-.54-1,.18-1.15,1-.73,1,.74.57,2,0,2.76.28,1.31,1.14.28,2.6-.27-.18,1.15-2.3,4.56,1.91.4.9-.15,1-.73-.75-1.49,1.15-1,.83.33.76.82.92.34.87-.55,1.81-2.08.87-.46,1.44.82,1.24,1.58,1.92,3.36,1.23,1.57,1.43.91,3.49.95,1.57-.54,2.68-2.62,1.73.28-.31-2.42v-2.56l-.79.67-.83.25-1.66-.06-.69-.7-.38-1.34,0-1.28.52-.81.92-.24,1.51-.84,1.41-1.36.75-1.65.57.09-.2,1.25-.5.71-.43.81-.69,2,1.28-2,1.88-1.87,2-1.55,4.65-2,1-.82,2-2.84.46-.41,1-.23,1.89-1.38.64-.29.37-.44.18-2.34.21-.75.62-.19,8.34,2.7,1.7,1.64-3.69.9-7.22.83L716.54,482l2.15-.53,5.78-1.05,8.12.39.38-.53,1.29-2.65.33-.74.26-1,.37-.43.52-.22.47-.51.2-.66,0-2,.18-1.15.65-1.57,3.19-4L741,464l.77-3.63.57-1.68,1.27-1.86,8.37-7.44,1.47-1.83-.34-1L750.4,448l-5.84,6.35-3.3.37-.5,1.29-1.54-.24-1.46-1.41-.48-1.94-.77-.12L735.3,450l-.59-2.55,1.15-1L746.05,448l1.6-.82,1.09-1.21.35-1.63-.45-2.14-1.17-1.95-2.82-2.12-1-1.73,4.42-2.45,12.1,6.34-.28-1.32,1.07-1.8-1.2-1.77-3.63-1.94-.79-1.22-1.06-2.63-.61-3,.46-2.2.2-1.25-1.23-.39-3.51-2.72-1-1.74.39-1.22.89-1.92.38-1.81-.92-1-1.83-.19-.81-.53-.6-1.16,5.86,2.19,1,1.16,1.36,4.45,1.61,2.32,1.09,7.36.87,1.41,1.38,1.21,2.55,1.29,17.59-.95,4-2.73,1.31-.18-.77-2.58-.93-2.22-1.83-3.34.21-1.35,1.69-.71.76-.48.62-.78,2.25,1.34,8.68,1.77,2.23-.44.22-1.93-1.14-1.56L789,411l2.62-1.65,7.49,4.33,1-.42,2.32-2.19,1.33-.28,1-.54,0-1.59-.51-1.74-.42-1.16-4.24-4.91L789,396.55l-4-4,1.44-.46,4.3,2.75,7.8-.14,6.21,4.33,3.66,1.17,3.69-2.17L811,395.21l-7.3-4.91-3-3.82-.51-1.08-.1-1.88-.69-1.87-.84-1.52-.65-.8-23.76-6.12.21-1.34,15.66,1.88,3.29-2.72-.79-.62-.81-1.12-.54-1.56-.16-2.09,2.15,1.32,3.56,4.89,3.82,2,2.23,2.12,1.07.66,1.1,1.16.51,2.34.18,2.6.51,1.75,1.4,1.11,4.94-.11,5.25,2.31,1.26-.49,2.81-2.2,1.25-.4.31-.74-.38-1.93-1-2.61,1.74-1,3.41-.43,1.78-1.2,1.74-2.28.83-2.13ZM531,120.86l.19-.55-.12-.51.15.32.33-.25.56.19.43-2.1-.92-.34-2.1.16-.86.45-.26,1.64,1.34.21Zm-425.59,64.3.28.05,0-.4-.52.11-.34.34-.72.78.11.51,1-1Zm79.78,14.23.47-.51.38-.54.17-.46h-.49l-.65.39-.56,1,.08.11ZM144,196.1l.73-1.45-1.29.57-.35-.25-.23.26-.7.68.29.64Zm-14.92,9-.32.14-1.16.5-.26,1.64.83-.86.55-.41Zm-8.45-.75-.73.27-.32.84.83-.37.82-.75Zm8.71,48.84.28-.54-.29,0-.52.2-.44-.36,0,.87.46.18ZM139,325.51l1,1.84,1,.83.82.33.52-.12.19-1.24-.37-.16-1.22.3-1-1.64-1.19-2.45-1.39-3,.09,2,.61,1.08Zm-1.14,41.28,1.08-1.21,1.21-.2.68-1.17-.3.05-.15-.31-.15-.92-1.15-.19-.91.76-.61.78,0,.3.27.14-.21,1.35Zm28.84,67.8.41.56.64.88.77-.46L168,434.5l-.74-.91-.07-.79-.77-.81-.77.57.48.66.41.55Zm72,162.29-.64,1-.4.64.29.64.72.4.29.05.59-.6.21-1.94ZM132.56,248.26l-.42.14-.15.36-.34.24-.47-.17.39,1.34.51-.12.23-.26.65-.38.55-.31h.09l.17-1.05-1.06-.17Z"/><text class="cls-2" transform="translate(951.79 74.39) scale(0.96 1)">KEFLAVÍK</text><text class="cls-2" transform="translate(951.79 115.13) scale(0.96 1)">HVERAGERÐI</text><text class="cls-2" transform="translate(951.79 155.87) scale(0.96 1)">GEYSIR</text><text class="cls-2" transform="translate(951.79 196.61) scale(0.96 1)">GULLFOSS</text><text class="cls-2" transform="translate(951.79 237.34) scale(0.96 1)">SKÓGAFOSS</text><text class="cls-2" transform="translate(951.79 359.56) scale(0.96 1)">SKAFTAFELL</text><text class="cls-2" transform="translate(951.79 400.29) scale(0.96 1)">JÖKULSÁRLÓN</text><text class="cls-2" transform="translate(951.79 441.03) scale(0.96 1)">HÖFN</text><text class="cls-2" transform="translate(951.79 481.77) scale(0.96 1)">SEYÐISFJÖRÐUR</text><text class="cls-2" transform="translate(951.79 563.24) scale(0.96 1)">MÝVATN</text><text class="cls-2" transform="translate(951.79 603.98) scale(0.96 1)">AKUREYRI</text><text class="cls-2" transform="translate(951.79 644.72) scale(0.96 1)">REYKJAVÍK</text><text class="cls-2" transform="translate(951.79 685.46) scale(0.96 1)">KEFLAVÍK</text><text class="cls-2" transform="translate(951.79 522.5) scale(0.96 1)">HVERIR</text><text class="cls-2" transform="translate(951.79 278.08) scale(0.96 1)">VÍK Í MÝRDAL</text><text class="cls-2" transform="translate(951.79 318.82) scale(0.96 1)">FJAÐRÁRGLJÚFUR</text><line class="cls-3" x1="922.29" y1="66.63" x2="922.29" y2="680.92"/><circle class="cls-4" cx="922.29" cy="66.89" r="7.5"/><circle class="cls-4" cx="922.29" cy="107.63" r="7.5"/><circle class="cls-4" cx="922.29" cy="148.37" r="7.5"/><circle class="cls-4" cx="922.29" cy="189.1" r="7.5"/><circle class="cls-4" cx="922.29" cy="229.84" r="7.5"/><circle class="cls-4" cx="922.29" cy="270.58" r="7.5"/><circle class="cls-4" cx="922.29" cy="311.32" r="7.5"/><circle class="cls-4" cx="922.29" cy="352.05" r="7.5"/><circle class="cls-4" cx="922.29" cy="392.79" r="7.5"/><circle class="cls-4" cx="922.29" cy="433.53" r="7.5"/><circle class="cls-4" cx="922.29" cy="474.27" r="7.5"/><circle class="cls-4" cx="922.29" cy="515" r="7.5"/><circle class="cls-4" cx="922.29" cy="555.74" r="7.5"/><circle class="cls-4" cx="922.29" cy="596.48" r="7.5"/><circle class="cls-4" cx="922.29" cy="637.22" r="7.5"/><circle class="cls-4" cx="922.29" cy="677.96" r="7.5"/><circle class="cls-4" cx="922.29" cy="555.74" r="7.5"/><path class="cls-3" d="M692.26,419.44c0-1.24-.51-3.54.59-4.37a17,17,0,0,1,2.11-.56,16.66,16.66,0,0,1,2.27-1,12.41,12.41,0,0,1,1.65-.5c1.31-.22,2.93.4,4.19.11,1.74-.4,3.44-2.65,4.74-3.85a20.28,20.28,0,0,0,3.26-4.23,9.28,9.28,0,0,0,1.62-2.86,16,16,0,0,1,.38-2.49c.68-1.76,2.23-3,3.12-4.67.69-1.28,1.21-3.46,2.15-4.54,1.83-2.1,6.59-1.95,9-1.53a22,22,0,0,0,4.36.49c1.1,0,2.82-.33,3.87.14s2.16,2.72,3.68,1.69c.42-.28.73-2.92.79-3.39a40.83,40.83,0,0,0,0-4.82c0-2.12.37-4.48-.4-6.48-1.2-3.13-5.41-3.57-6.51-6.73-.43-1.24-.45-4.29.46-5.15.66-.62,2.53-.87,3.41-1.36a8.78,8.78,0,0,1,4.18-1.28,6.63,6.63,0,0,0,3.69-1.79c.17-.13,2.07-1.48,2.1-1.56,1.09-2.6-3.84-3.54-4.85-4.83a34.22,34.22,0,0,1,5.48-1.43c1.47-.12,3,.24,4.47,0,.77-1.9-1.52-4.34-2.31-5.85a14.74,14.74,0,0,0-1.8-3c-.15-.2-1.37-1.29-1.43-1.44-.51-1.25-.22-2.89-.71-4.28-.54-1.55-1.31-4.91-3.12-5.31a6.81,6.81,0,0,1-.2-1c-.79-.18-1.5.1-2.28,0a8.26,8.26,0,0,1-3.38-1.91c-1-1-1.33-2.49-2.37-3.48-.6-.56-1.45-.94-2.09-1.53-1.35-1.23-2.55-2.41-2.58-4.33-.07-4.45,1.34-9.53,1.94-13.93.49-3.61,2.81-7.07,4.17-10.42,2.14-5.31,1-12,1-17.65,0-.64-.33-2.2.08-2.76,1-1.34,2.37-1,3.17-3,.67-1.7.85-3.71,1.36-5.48a22.32,22.32,0,0,0,1.15-4c0-.6,0-1.2-.08-1.8a.7.7,0,0,1,.69-.71,12.15,12.15,0,0,1,1.1-1.95,11.69,11.69,0,0,1,2.85-2.22,6.36,6.36,0,0,1,4.48-1.43,13.81,13.81,0,0,0,3.15-.11c1.33-.31,2.26-1.37,3.72-1.19,1.7.2,1.05.55,2.21,1.65a17.53,17.53,0,0,0,2.86,1.9c.93.53,2.51.68,3.27,1.4s.15,1.14.67,2c.71,1.1,3.1,1.9,3.78.8.84-1.37-.64-3.63.59-5.14"/><path class="cls-3" d="M494.06,183.64c-.82-.18-1-2-1.38-2.56-.72-1.08-1.62-2-2.32-3.06a9.52,9.52,0,0,0-2.52-2.82c-1-.76-2-1.57-3.34-1-2,.8-4.34,4.21-5.43,5.87-1,1.51-1.38,3.48-2.22,5.07-.72,1.35-1.59,2.55-2.42,3.82a16.94,16.94,0,0,1-3.18,3.67c-1.14.94-2.38,1.53-3.39,2.95-1.74,2.46-3.43,5-5.19,7.41-1.13,1.57-.78,1.45-1.22,3.08-1,3.62-3.43,7.44-5,10.74-.43.91-1,2.68-1.73,3.36s-3.46,1.41-4.44,1.6c-2.31.44-5.07-.51-7.29.09s-4,3.48-5.73,4.93c-2.7,2.32-6.92,1.46-10.27,1.48-1.63,0-3.19.13-4.66-.77s-2.59-2.73-4-3.88a4.09,4.09,0,0,1-2-3.43c-.3-2.14-1.3-6.11-3.51-7.1-1.17-.53-2.79-.41-4-.9a25.29,25.29,0,0,0-4.46-1.62c-2.19-.43-2.9.07-4.6,1.45-2.08,1.69-3.78,1.46-6.22,2.23-4.57,1.44-8.53.26-12.95-1.12-2.1-.65-3.59-2.07-5.58-2.91a22,22,0,0,1-3.23-1.69c-2.48-1.59-5.32-2.64-7.26-5.09a35.2,35.2,0,0,0-4.16-4.9c-2.14-1.86-4.53-3.33-6.66-5.18a19.46,19.46,0,0,1-1.62-1.41,1.66,1.66,0,0,0-.33-1.18,6.47,6.47,0,0,0-2.28-.11c-2.71-.09-5.18-.67-5.8,2.34-.76,3.66-2.59,7.54-4.13,11.08-.91,2.1-1.95,3.82-2.28,6.1a19.42,19.42,0,0,1-1.59,5.09,7.84,7.84,0,0,1-2,2.9,89.46,89.46,0,0,1-7.08,7c-1.61,1.44-3.76,2.67-4.49,4.89-.37,1.16-.14,1.4-.85,2.53a6.52,6.52,0,0,0-1.74,2,2.68,2.68,0,0,0,0,1.46c-.77,1.28-1.77,1.94-2.08,3.66-.94,0-.86.66-1.52,1a9,9,0,0,1-1.86.7c-1.7.41-3.34.12-5.08.29-1,.1-1.91.55-2.92.7-.6.08-1.16-.2-1.75.09-1.58.79-2.27,3.56-2.83,5s-1.08,2.95-2.38,3.8c-1.59,1.05-2.68.15-3.84,1.88-1,1.49-1.75,3-2.87,4.51a6.38,6.38,0,0,0-1.61,4c-.18,3.09.13,6.23.07,9.33-.11,4.85-2,9.42-2,14.2,0,1.75,0,3.5,0,5.24s.6,3.35.64,5.17a34.94,34.94,0,0,0,.14,5.88c.29,1.57.83,3.11,1.16,4.53.43,1.85-.24,2.86-1.17,4.18-.34.49-.53,1.09-.89,1.58-1.05,1.43-2.07,1.35-3.61,1.93-3.06,1.14-2.36,6.93-4.53,9.24-1.28,1.37-3.37,1.64-5.1,1.59a10.58,10.58,0,0,0-4.29.62c-1.87.69-4.67.45-6.34,1.37-2.08,1.15-3.36,4.16-4.6,6.11-1,1.66-2,3.37-3,5a10.44,10.44,0,0,1-1.89,2.7c-.64.57-1.26.84-1.88,1.45-2.67,2.65-5.07,7.64-6.16,11.17-.36,1.15-.27,2.55-.89,3.44-1,1.5-3.86,3.07-5.33,4.21s-3.73,2.34-4.71,4.08c-.63,1.13-.29,2.66-.45,3.87s-.79,1.75-1.16,2.94c-.48,1.55.05,3.35-.11,4.95-.22,2.24-2.14,4.24-3.42,6.23-1.7,2.66-3.66,6.64-1.46,9.53,1.95,2.56,4.2,4.71,7.48,5,1.07.08,1.38-.21,2.06.57a7.63,7.63,0,0,1,.76,2.26c.49,1.9.51,2.77-.72,4.14-1.67,1.89-8.82,4.54-3.63,7.54,2.08,1.21,4.24,2,5.39,4.26.91,1.76.82,4.13,1.35,6.09.76,2.78,1.6,4.38,4.62,4.44,1.44,0,4.08-.62,4.75.92.39.88-.22,2.12-.56,2.9-.9,2.1-2,2.27-4.24,2.74h0c-2,.41-3.44.31-4.94,1.9-.66.7-1.09,1.6-1.8,2.26-1,.88-2.16,1.15-3.24,1.83-2.19,1.39-2.69,3.67-3.67,5.93a4.36,4.36,0,0,1-2,2.52,15.92,15.92,0,0,0-4,4.11c-2.12,2.71-5.66,4-8.67,5.19-2.08.81-3.84,2.27-6,3-1.8.6-3.41,1.65-5.28,1.78s-3.83-.29-5.67,0a19,19,0,0,1-4,.58c-2.95-.07-4.82-2.73-7.65-3.21a8.14,8.14,0,0,0-5.74,1.3s-16.57,4.11-23.58,3.19c-1.74-.23,4.46-.58,6.07,0,2.84,1.12,4.42,5.23,5.45,7.71.78,1.88,1.23,2.24,1.23,4.35s-.58,4.19-.65,6.39c-.07,1.87-.39,4.25,1.4,5.47s4.82,1.7,7,2a22.2,22.2,0,0,0,7.41.07c3.24-.8,6.32-2.8,9.67-3.12,2.71-.25,5.51.14,8.23,0,2.06-.08,3.76-.73,5.9-.68,2.71.06,5.37.62,8.08.7,2.9.08,5.8-.14,8.69-.07,3.32.08,7.6,1.92,10.48-.29,3.23-2.47,5.43-6.72,7.41-10.22.77-1.37,1.15-2.67,2-4,.61-.95,1.5-1.76,2.12-2.71,1.26-1.95,1.56-1.53,3.62-2,.67-.16,1.37-.85,2.1-1s1.27,0,1.89-.09c1.4-.29,2.31-.87,3.83-.69,2.63.31,5.25,2.51,6.87,4.62.74,1,.93,2.08,2.69,1.83,2.59-.35,4.21-5.86,5.71-7.75,4.07-5.14,9-9.16,14.2-13.1a36.26,36.26,0,0,0,9.52-11c2.56-5,4.79-10.1,7.85-14.76.76-1.15,1.34-2.76,2.22-3.69.34-.37.82-.44,1.17-.68,2.6-1.78,5.19-3.84,7.75-5.81,3-2.3,6-5.51,9.41-7a6.64,6.64,0,0,1,2.17-.78l3.79-.63c1.34-.23,3.15-1,4.44.14,1.05,1,.59,3.24.6,4.83,0,2,0,2.39-1.28,3.93a40.45,40.45,0,0,0-3.05,3.92c-1.64,2.58-1.53,6.2-3.32,8.77-1.18,1.7-2.87,3.12-3.22,5.3-.31,1.95-.09,3.36-.78,5.28-.53,1.5-.2,2.85-.59,4.31a24.33,24.33,0,0,1-6.2,10.33c-5.29,5.07-10.79,9.94-17.28,13.3-2,1.05-2.2,1.07-3.27,3.07-1.23,2.3-3.37,3.88-3.72,6.4-.54,3.9,2.38,5.92,4.89,8.63,3.67,3.95,8,6.47,12.22,9.73a49.12,49.12,0,0,1,14.23,16.81c.8,1.61,1.6,5.44,3.41,6.41a1.26,1.26,0,0,1,1.67.35,26,26,0,0,0,2.79,5.48c4,6.38,9.28,12.4,15.79,16.26,3.5,2.07,8.26,2.74,12.27,2.67,1.83,0,3.87.23,5.7.06,2-.19,3.35-1.4,5.2-1.92,2.26-.63,4.21.61,6.08,1.66,2.47,1.37,5,2.29,7.47,3.71,6.28,3.58,12.46,8.28,19.53,10.09a59.21,59.21,0,0,0,5.75,1.66,15.33,15.33,0,0,0,10.54-3.13c2.26-1.86,2.54-3.83,5.3-4.39a44.61,44.61,0,0,0,13.4-5c4-2.29,5.26-4.4,7.8-8.08,1.91-2.78,2.05-3.52,2.74-6.66.37-1.65,1.15-3,1.32-4.67.19-1.83-.29-3.67,0-5.51a12,12,0,0,1,3.08-5.46c3.26-3.87,8.45-5.92,10.7-10.45a13.54,13.54,0,0,1,4.07-5.41c3.7-2.61,6.69-6.47,10.78-8.48,3.56-1.75,7.5-2.91,11.1-4.61,4-1.89,9.12-4.11,12.41-7.07a35.18,35.18,0,0,0,3.59-4.13c1.82-2.24,2.4-2.4,5.33-2.35,3.28.05,6.57,0,9.85,0,2,0,3.68.41,5.59-.5,3.62-1.71,7.27-4,10.77-5.94a25.06,25.06,0,0,0,9.71-9.85h0a6.41,6.41,0,0,1,4.41-3.52c2.36-.56,3,2.16,3.69,4.19.76,2.28,2,4.44,2.58,6.75a23,23,0,0,1,.61,3.31,33,33,0,0,0,1,4.05,17.38,17.38,0,0,0,8.11,10.46c1.17.6,2.31.58,3.44,1.18s1.45,1.17,2.8,1.37c6.17.92,8.85-4.08,11.82-8.32a6.53,6.53,0,0,1,2.93-2.55c1.92-.71,3.74-.9,5.62-1.87,2.36-1.23,4.06-2,6.73-1.94a23.75,23.75,0,0,0,4.13,0c3.54-.59,1.6-3.07,3-5.41,1.15.89,1.93,4.4,3.35,4.56a105.48,105.48,0,0,0,11.05-10.4c2.91-3.13,6.91-5.47,10.11-8.36,5.5-5,12.69-8.13,15.33-15.44,1-2.83,3-5,4.38-7.55.81-1.46,1.29-3.06,2.14-4.52a62.55,62.55,0,0,1,3.72-5.65c1.52-2.07,1.14-4.08,1.64-6.54a8.81,8.81,0,0,1,1.68-3c.59-.91,1-2.67,1.91-3.41s1.82-.56,3-.55c2.68,0,7.77-.38,9.51,2.15,1.1,1.6,1,4.3,1.43,6.2a40.86,40.86,0,0,1,1,8.53c0,1.9-.56,4.53.64,6.06"/><path class="cls-3" d="M498.52,183V172.77c0-1.28-.42-3.27,0-4.46.27-.83,1.58-3,2.54-3.23,1.62-.46,2.5,1.22,3.33,2.13a27.69,27.69,0,0,1,3.75,4.32,21.27,21.27,0,0,1,1.69,5c.77,2.48,3.05,3,5.16,4.25,4.07,2.32,8.41,2.16,12.62,4.17a8.34,8.34,0,0,0,4.75.62c2-.23,2.43-1.23,3.77-2.58s2.55-2.93,4.34-3.21a12.7,12.7,0,0,1,4,0c1.51.57,1.87,2.47,2.36,3.85a51.77,51.77,0,0,0,2.36,5.67c1.3,2.65,1.86,4.37,3.81,6.56,1.39,1.57,3.16,4.14,5.1,4.37,4.34.51,7-1.74,9.47-5.16.59-.81,1.6-3.24,2.33-3.71,1.28-.83,2.57.5,3.36,1.18,1.18,1,2.11,2.2,3.67,2.59a9.4,9.4,0,0,0,5.48-.62c1.51-.89,1.87-2.35,3.46-3.25a5,5,0,0,1,3.82-.48,28.71,28.71,0,0,0,5.26.5h11.83c1.65,0,3.31-.08,5,0,2.93.06,5.83,1.59,8.35,3,2.86,1.63,5,3.6,8,4.82,1.45.58,3.31,2.5,4.82,2.5.36,2.58,1.07,6.25,2.59,8.41a35,35,0,0,0,3.62,4c.6.6,1.92,1.31,2.23,2.09a12,12,0,0,1-.05,2.87,43.3,43.3,0,0,1-.14,5.47c-.13,1-1.3,3.49-.39,4.41.32.34,2.9.11,3.19.1,3.85-.14,6.71-3.34,10.27-4.55,4-1.37,7.19-1.21,11.26-.56,1.09.18,2.17-.14,3.28.11a14.46,14.46,0,0,1,2,1,8.06,8.06,0,0,1,2.95,1.45,16.41,16.41,0,0,1,1.85,2.39c.48.57,1.68,1.08,2,1.55s.1,1.73.08,2.34a52.33,52.33,0,0,0,.5,6.84c.17,1.76-.16,3.35.61,4.93,1.06,2.18,2.85,2.63,4.58,4,1.12.87,1.37,2.38,3.1,2.25,1.44-.11,1.3-1,2.79-1.39a17.37,17.37,0,0,0,4.83-.18,15.73,15.73,0,0,0,4.93-1.81c1.36-1,2.27-2.48,3.51-3.59a50.5,50.5,0,0,1,4.17-3.28c5.7-4.1,13.31-1.07,19-5a27.75,27.75,0,0,0,4.9-4.63c.81-.92,2.68-2.31,2.64-3.72,4.8-1.9,6.86,7,6.92,9.8,0,1.58-.12,2.52.54,4s2.54,2.53,3.17,4.12c.71,1.79.32,3.74,1.39,5.57a14.06,14.06,0,0,0,1.38,1.93c1.45,1.68,4,3.44,6.27,3.26,1.61-.12,2.63-.91,4.31-.58a5.77,5.77,0,0,1,3,1.79c1.26,1.13,2.57,2.21,3.85,3.32,1.64,1.45,3,3.89,5.07,4.78,3,1.29,4.1-1.66,5.18-4,.7-1.48,2.07-3.68,2.17-5.41"/><path class="cls-5" d="M166.49,462.49a6.38,6.38,0,1,1-6.38-6.37,6.38,6.38,0,0,1,6.38,6.37"/><path class="cls-5" d="M264,462.49a6.37,6.37,0,1,1-6.37-6.37,6.37,6.37,0,0,1,6.37,6.37"/><path class="cls-5" d="M317.32,420.56a6.38,6.38,0,1,1-6.38-6.37,6.38,6.38,0,0,1,6.38,6.37"/><path class="cls-5" d="M344.93,407.82a6.38,6.38,0,1,1-6.37-6.38,6.37,6.37,0,0,1,6.37,6.38"/><path class="cls-5" d="M384.44,537.94a6.37,6.37,0,1,1-6.37-6.37,6.37,6.37,0,0,1,6.37,6.37"/><path class="cls-5" d="M419.85,557.86a6.37,6.37,0,1,1-6.37-6.38,6.37,6.37,0,0,1,6.37,6.38"/><path class="cls-5" d="M478.12,500.21a6.37,6.37,0,1,1-6.37-6.37,6.38,6.38,0,0,1,6.37,6.37"/><path class="cls-5" d="M564.1,451.85a6.38,6.38,0,1,1-6.38-6.38,6.38,6.38,0,0,1,6.38,6.38"/><path class="cls-5" d="M618.49,467.34a6.37,6.37,0,1,1-6.37-6.38,6.37,6.37,0,0,1,6.37,6.38"/><path class="cls-5" d="M690.34,424.54a6.37,6.37,0,1,1-6.37-6.38,6.37,6.37,0,0,1,6.37,6.38"/><path class="cls-5" d="M779.89,258.16a6.38,6.38,0,1,1-6.38-6.37,6.38,6.38,0,0,1,6.38,6.37"/><path class="cls-5" d="M592.84,191.29a6.38,6.38,0,1,1-6.38-6.38,6.38,6.38,0,0,1,6.38,6.38"/><path class="cls-5" d="M567.35,206.58a6.38,6.38,0,1,1-6.38-6.37,6.38,6.38,0,0,1,6.38,6.37"/><path class="cls-5" d="M501.53,184.68a6.37,6.37,0,1,1-6.37-6.37,6.38,6.38,0,0,1,6.37,6.37"/><path class="cls-5" d="M248.72,435.25a6.38,6.38,0,1,1-6.38-6.38,6.38,6.38,0,0,1,6.38,6.38"/><text class="cls-6" transform="translate(375.6 583.19) scale(0.96 1)">VÍK Í MÝRDAL</text><text class="cls-7" transform="translate(353.36 525.28) scale(0.96 1)">SKÓGAFOSS</text><text class="cls-7" transform="translate(334.91 393.12) scale(0.96 1)">GULLFOSS</text><text class="cls-7" transform="translate(265.37 405.86) scale(0.96 1)">GEYSIR</text><text class="cls-7" transform="translate(225.91 520.82) scale(0.96 1)">HVERAGERÐI</text><text class="cls-7" transform="translate(92.92 486.77) scale(0.96 1)">KEFLAVÍK</text><text class="cls-7" transform="translate(487.07 505.52) scale(0.96 1)">FJAÐRÁRGLJÚFUR</text><text class="cls-7" transform="translate(511.17 439.18) scale(0.96 1)">SKAFTAFELL</text><text class="cls-7" transform="translate(625.01 471.67) scale(0.96 1)">JÖKULSÁRLÓN</text><text class="cls-7" transform="translate(697.36 430.3) scale(0.96 1)">HÖFN</text><text class="cls-7" transform="translate(755.03 283.08) scale(0.96 1)">SEYÐISFJÖRÐUR</text><text class="cls-7" transform="translate(582.01 181.11) scale(0.96 1)">HVERIR</text><text class="cls-7" transform="translate(534.36 228.34) scale(0.96 1)">MÝVATN</text><text class="cls-7" transform="translate(459.42 155.39) scale(0.96 1)">AKUREYRI</text><text class="cls-7" transform="translate(140.4 441) scale(0.96 1)">REYKJAVÍK</text></g></g></svg>