<svg xmlns="http://www.w3.org/2000/svg" viewBox="0 0 168.56 111.03"><defs><style>.cls-1{fill:#2f3e4900;}.cls-2{fill:#868e95;}</style></defs><title>g_Eszköz 3</title><g id="Réteg_2" data-name="Réteg 2"><g id="Layer_1" data-name="Layer 1"><path class="cls-1" d="M15.3,72.76c-4.24-1.51-8.08-7.06-8.08-11.57v-11L4.3,48.6,3.05,45.26,7.6,42.39a8.17,8.17,0,0,1,7.79-5.7,8.33,8.33,0,0,1,8.16,8.16c0,4.25,4.34,8.83,4.34,8.83l34.5,20.17S19.72,74.34,15.3,72.76Z"/><path class="cls-2" d="M47.66,76.43c-13.16,0-30.14-.22-33.2-1.31h0c-5.19-1.86-9.74-8.37-9.74-13.93V51.67L2.29,50.35,0,44.24l5.55-3.51a10.62,10.62,0,0,1,9.84-6.54A10.8,10.8,0,0,1,26.05,44.85c0,2.47,2.3,5.58,3.43,6.87l42,24.52-9,.11C60,76.38,54.32,76.43,47.66,76.43Zm-31.52-6c2.25.76,19.32,1.08,37.14,1l-27-15.76-.25-.26c-.51-.55-5-5.46-5-10.55a5.8,5.8,0,0,0-5.66-5.66,5.65,5.65,0,0,0-5.41,4L9.71,44l-3.6,2.28.21.56,3.4,1.84v12.5C9.72,64.68,12.9,69.25,16.14,70.41Z"/><polygon class="cls-2" points="74.58 82.56 61.02 74.73 74.58 66.9 74.58 82.56"/><path class="cls-1" d="M60.75,38.58c-4.24-1.52-8.08-7.07-8.08-11.58V16l-2.92-1.58L48.5,11.08,53.05,8.2a8.17,8.17,0,0,1,7.79-5.7A8.34,8.34,0,0,1,69,10.67c0,4.24,4.34,8.82,4.34,8.82l34.5,20.17S65.17,40.16,60.75,38.58Z"/><path class="cls-2" d="M93.11,42.24c-13.17,0-30.14-.22-33.2-1.31h0c-5.19-1.85-9.74-8.36-9.74-13.93V17.48l-2.43-1.32-2.29-6.11L51,6.54A10.61,10.61,0,0,1,60.84,0,10.8,10.8,0,0,1,71.5,10.67c0,2.46,2.3,5.57,3.43,6.86l42,24.53-9,.1C105.45,42.19,99.77,42.24,93.11,42.24Zm-31.52-6c2.25.76,19.33,1.08,37.14,1l-27-15.76-.25-.26c-.51-.54-5-5.45-5-10.54A5.81,5.81,0,0,0,60.84,5a5.65,5.65,0,0,0-5.41,4l-.27.87-3.6,2.27.21.56,3.4,1.85V27C55.17,30.5,58.35,35.06,61.59,36.22Z"/><polygon class="cls-2" points="120.03 48.38 106.47 40.55 120.03 32.72 120.03 48.38"/><path class="cls-1" d="M109.28,101.23c-4.25-1.51-8.08-7.06-8.08-11.57v-11l-2.92-1.58L97,73.73l4.55-2.87a8.15,8.15,0,0,1,7.78-5.7,8.34,8.34,0,0,1,8.17,8.16c0,4.25,4.33,8.83,4.33,8.83l34.5,20.17S113.7,102.81,109.28,101.23Z"/><path class="cls-2" d="M141.64,104.9c-13.17,0-30.14-.22-33.2-1.31h0c-5.19-1.86-9.74-8.37-9.74-13.93V80.14l-2.43-1.32L94,72.71l5.54-3.51a10.62,10.62,0,0,1,9.84-6.54A10.8,10.8,0,0,1,120,73.32c0,2.47,2.29,5.58,3.43,6.87l42,24.52-9,.11C154,104.84,148.29,104.9,141.64,104.9Zm-31.52-6c2.24.76,19.32,1.08,37.13,1l-27-15.76-.24-.26c-.52-.55-5-5.46-5-10.55a5.81,5.81,0,0,0-5.67-5.66,5.65,5.65,0,0,0-5.4,4l-.28.87-3.6,2.28.21.56,3.41,1.84v12.5C103.7,93.15,106.88,97.72,110.12,98.88Z"/><polygon class="cls-2" points="168.56 111.03 155 103.2 168.56 95.37 168.56 111.03"/><circle class="cls-2" cx="15.36" cy="44.69" r="2.5"/><circle class="cls-2" cx="60.87" cy="10.11" r="2.5"/><circle class="cls-2" cx="109.43" cy="73.73" r="2.5"/></g></g></svg>