<svg xmlns="http://www.w3.org/2000/svg" viewBox="0 0 133.15 118.15"><defs><style>.cls-1{fill:#73c8de;}.cls-2{fill:#f96400;}</style></defs><title>g_Eszköz 9</title><g id="Réteg_2" data-name="Réteg 2"><g id="Layer_1" data-name="Layer 1"><rect class="cls-1" x="62.66" y="42.56" width="70.5" height="7"/><rect class="cls-1" x="19.37" y="52.63" width="21.41" height="7.27"/><rect class="cls-1" x="19.37" y="81.72" width="21.41" height="7.27"/><rect class="cls-1" x="19.37" y="96.28" width="21.41" height="7.27"/><rect class="cls-1" x="42.12" y="67.24" width="19.37" height="7.27"/><rect class="cls-1" x="42.12" y="110.88" width="19.37" height="7.27"/><rect class="cls-1" y="89" width="19.37" height="7.27"/><rect class="cls-1" x="9.69" y="67.24" width="19.38" height="7.27"/><path class="cls-2" d="M29.06,38.2a19.1,19.1,0,1,1,19.1-19.1A19.12,19.12,0,0,1,29.06,38.2Zm0-30.93A11.83,11.83,0,1,0,40.89,19.1,11.84,11.84,0,0,0,29.06,7.27Z"/></g></g></svg>