<svg width="100mm" height="100mm" version="1.1" viewBox="0 0 100 100" xmlns="http://www.w3.org/2000/svg">
 <g transform="translate(-.003687 .004342)">
  <g transform="matrix(2 0 0 -2 100 50)">
   <g transform="matrix(.09404 0 0 .09404 -63.09 -668.1)">
    <g transform="matrix(2.135 0 0 2.123 -960.8 -8251)">
     <g transform="translate(567.2 7182)">
      <path d="m0 0h-4.96v19.18l8.429 8.85 3.592-3.421-7.061-7.414z" fill="#f96400"/>
     </g>
     <path d="m564.6 7198h-12.65v4.96h12.65z" fill="#f96400"/>
     <g transform="translate(583.4 7206)">
      <path d="m0 0h-12.33l-7.193 10.18h-16.46v4.96h19.03l7.194-10.18h9.762z" fill="#f99d00"/>
     </g>
     <g transform="translate(587 7344)">
      <path d="m0 0 2.427 1.022 8.709-5.002-3.104 7.365 2.598 1.094 5.041-11.96-2.238-.944-8.999 5.164 3.205-7.605-2.597-1.095z" fill="#73c8de"/>
     </g>
     <g transform="translate(602 7350)">
      <path d="m0 0 2.728.851 3.867-12.4-2.728-.851z" fill="#73c8de"/>
     </g>
     <g transform="translate(609.8 7345)">
      <path d="m0 0-.008.036c-.771 3.61 1.319 7.15 5.219 7.983 2.395.511 3.999.019 5.426-.89l-1.34-2.43c-1.17.679-2.283 1.011-3.553.739-2.141-.457-3.304-2.564-2.839-4.741l.008-.037c.465-2.177 2.359-3.669 4.536-3.204 1.451.31 2.216 1.08 3.02 2.201l2.162-1.417c-1.008-1.676-2.273-2.857-4.722-3.38-3.738-.798-7.13 1.494-7.909 5.14" fill="#73c8de"/>
     </g>
     <g transform="translate(624 7355)">
      <path d="m0 0 9.756.895.232-2.532-6.929-.635.241-2.624 6.097.559.232-2.532-6.097-.559.249-2.716 7.021.644.233-2.532-9.849-.903z" fill="#73c8de"/>
     </g>
     <g transform="translate(637.8 7356)">
      <path d="m0 0 2.857-.047-.17-10.39 6.475-.106-.043-2.598-9.332.154z" fill="#73c8de"/>
     </g>
     <g transform="translate(657.2 7347)">
      <path d="m0 0-1.143 4.406-2.277-3.941zm-1.948 7.98 2.611-.355 3.752-13.71-2.961.402-.783 3.047-5.443.741-1.57-2.727-2.887.394z" fill="#73c8de"/>
     </g>
     <g transform="translate(667 7353)">
      <path d="m0 0 2.539-.7 3.741-9.324 2.125 7.708 2.718-.75-3.45-12.52-2.343.646-3.869 9.628-2.192-7.958-2.719.749z" fill="#73c8de"/>
     </g>
     <g transform="translate(683.2 7336)">
      <path d="m0 0c2.152-.915 4.221-.081 5.121 2.036l.015.034c.9 2.117.081 4.221-2.071 5.136l-2.032.864-3.064-7.206zm-.586 11.56 4.661-1.983c3.757-1.598 5.255-5.28 3.824-8.644l-.014-.034c-1.431-3.364-5.138-4.872-8.894-3.274l-4.662 1.982z" fill="#73c8de"/>
     </g>
     <g transform="translate(578 7142)">
      <path d="m0 0 2.708-1.619-1.779-9.596 7.61 6.111 2.644-1.581-11.22-8.536-2.167 1.295z" fill="#73c8de"/>
     </g>
     <g transform="translate(592.9 7125)">
      <path d="m0 0 .171 4.549-3.313-3.121zm.426 8.203 2.398-1.09-.343-14.21-2.72 1.236.124 3.143-5 2.272-2.286-2.161-2.652 1.205z" fill="#73c8de"/>
     </g>
     <g transform="translate(602.4 7130)">
      <path d="m0 0 2.52-.765 3.499-9.415 2.321 7.649 2.698-.82-3.77-12.42-2.325.706-3.619 9.722-2.397-7.897-2.698.819z" fill="#73c8de"/>
     </g>
     <g transform="translate(616.3 7126)">
      <path d="m0 0 2.813-.503-1.829-10.23 6.375-1.14-.458-2.558-9.187 1.643z" fill="#73c8de"/>
     </g>
     <g transform="translate(627.8 7124)">
      <path d="m0 0 2.843-.275-1.249-12.92-2.844.275z" fill="#73c8de"/>
     </g>
     <g transform="translate(633.8 7123)">
      <path d="m0 0 9.89-.163-.043-2.598-7.032.116-.045-2.764 6.197-.103-.043-2.597-6.197.102-.083-5.028-2.857.047z" fill="#73c8de"/>
     </g>
     <g transform="translate(645.8 7123)">
      <path d="m0 0 9.748.919.238-2.53-6.923-.653.247-2.621 6.092.573.239-2.529-6.093-.573.256-2.715 7.015.661.239-2.529-9.841-.927z" fill="#73c8de"/>
     </g>
     <g transform="translate(667.1 7124)">
      <path d="m0 0-3.822-1.001-.668 2.548 10.41 2.725.667-2.547-3.822-1.001 2.623-10.01-2.764-.724z" fill="#73c8de"/>
     </g>
     <g transform="translate(682.6 7125)">
      <path d="m0 0c1.297.505 1.771 1.485 1.374 2.506l-.014.034c-.444 1.142-1.467 1.419-2.764.915l-2.646-1.03 1.353-3.475zm-7.647 3.792 5.532 2.153c1.539.599 2.9.631 4.005.146.936-.412 1.67-1.222 2.114-2.362l.014-.036c.759-1.953.183-3.59-1.133-4.76l4.637-3.171-3.111-1.212-4.1 2.863-2.092-.814 1.507-3.872-2.663-1.037z" fill="#73c8de"/>
     </g>
     <g transform="translate(687.4 7134)">
      <path d="m0 0 2.56 1.271 5.778-11.63-2.56-1.272z" fill="#73c8de"/>
     </g>
     <g transform="translate(700.6 7134)">
      <path d="m0 0c1.221.741 1.491 1.903.914 2.854l-.019.033c-.665 1.093-1.782 1.217-3.002.476l-1.887-1.145 2.06-3.393zm-7.774 2.938 4.534 2.754c2.647 1.609 5.202 1.011 6.579-1.255l.019-.033c1.56-2.568.371-5.113-2.118-6.625l-1.855-1.126 2.022-3.329-2.441-1.483z" fill="#73c8de"/>
     </g>
     <g transform="translate(615.8 7283)">
      <path d="m0 0c-5.002 0-8.577.682-8.778.721l-5.326.821.758 4.902 5.421-.838c.33-.062 23.95-4.42 32.84 10.84 11.11 19.06 31.87 15.89 37.78 12.65l-2.386-4.348c-2.921 1.602-21.07 6.42-31.1-10.8-4.461-7.654-12.5-12.36-23.26-13.61-2.109-.245-4.124-.336-5.948-.336" fill="#41ca75"/>
     </g>
     <g transform="translate(608.3 7284)">
      <path d="m0 0c-4.821 0-8.146.873-8.24.898l1.309 4.784c.929-.25 22.85-5.882 33.53 16.34 12.52 26.06 38.17 18.59 38.43 18.51l-1.446-4.745c-.879.263-21.86 6.244-32.51-15.92-8.116-16.88-22.15-19.87-31.07-19.87" fill="#41ca75"/>
     </g>
     <g>
      <path d="m598.9 7235h-66.37v-4.96h66.37z" fill="#546076"/>
      <path d="m682.6 7230h64.02v4.96h-64.02z" fill="#546076"/>
      <path d="m560.1 7221h-4.96v13.04h4.96z" fill="#f96400"/>
     </g>
     <g transform="translate(608.8 7299)">
      <path d="m0 0c-4.032 0-10.37 2.425-11.1 2.71l1.802 4.622c2.491-.97 7.275-2.468 9.494-2.368 2.844.131 8.76.404 13.48 6.211l3.85-3.128c-6.122-7.532-13.82-7.886-17.1-8.038-.137-.006-.279-.009-.422-.009" fill="#4a668c"/>
     </g>
     <g transform="translate(682.3 7288)">
      <path d="m0 0c-2.012 1.761-5.995 4.801-8.118 5.461-2.718.847-8.374 2.606-14.79-1.243l-2.553 4.253c8.319 4.993 15.68 2.704 18.82 1.727 3.818-1.188 9.3-5.93 9.914-6.467z" fill="#4a668c"/>
     </g>
     <g fill="#73c8de">
      <path d="m727.4 7230h-14.6v4.96h14.6z"/>
      <path d="m727.4 7210h-14.6v4.96h14.6z"/>
      <path d="m727.4 7200h-14.6v4.96h14.6z"/>
      <path d="m741.5 7220h-13.22v4.96h13.22z"/>
      <path d="m741.5 7190h-13.22v4.96h13.22z"/>
      <path d="m712.8 7205h-13.22v4.96h13.22z"/>
      <path d="m719.4 7220h-13.22v4.96h13.22z"/>
     </g>
     <g>
      <path d="m560.1 7243h-4.96v10.16h4.96z" fill="#b2bdc6"/>
      <path d="m565.6 7253h-4.96v10.16h4.96z" fill="#73c8de"/>
      <path d="m555.1 7253h-4.96v10.16h4.96z" fill="#73c8de"/>
      <path d="m555.1 7268h-4.96v10.16h4.96z" fill="#546076"/>
     </g>
     <g transform="translate(719.4 7266)">
      <path d="m0 0c-4.446 0-8.063-3.618-8.063-8.065s3.617-8.065 8.063-8.065c4.447 0 8.065 3.618 8.065 8.065s-3.618 8.065-8.065 8.065m0-21.09c-7.181 0-13.02 5.843-13.02 13.02s5.842 13.02 13.02 13.02c7.183 0 13.03-5.843 13.03-13.02s-5.843-13.02-13.03-13.02" fill="#f96400"/>
     </g>
     <path d="m658.8 7269h-51.46v-4.96h51.46z" fill="#b2bdc6"/>
     <g transform="translate(601.8 7224)">
      <path d="m0 0v15.68h78.6v-15.68zm27.64 31.11h21.78v-10.48h-48.79l2.381 10.48zm38.31 0 9.526-10.48h-21.1v10.48zm-2.727-45.61c-2.066 0-3.746 1.682-3.746 3.748 0 2.067 1.68 3.748 3.746 3.748 2.067 0 3.748-1.681 3.748-3.748 0-2.066-1.681-3.748-3.748-3.748m-49.28 0c-2.066 0-3.748 1.682-3.748 3.748 0 2.067 1.682 3.748 3.748 3.748 2.067 0 3.748-1.681 3.748-3.748 0-2.066-1.681-3.748-3.748-3.748m69.62 33.61-15.42 16.96h-69.09l-4.009-17.64v-23.39h12.41c-1.375-1.54-2.22-3.565-2.22-5.788 0-4.801 3.907-8.708 8.708-8.708 4.802 0 8.708 3.907 8.708 8.708 0 2.223-.844 4.248-2.22 5.788h36.3c-1.375-1.54-2.219-3.565-2.219-5.788 0-4.801 3.906-8.708 8.707-8.708 4.802 0 8.709 3.907 8.709 8.708 0 2.223-.845 4.248-2.221 5.788h13.85z" fill="#b2bdc6"/>
     </g>
     <path d="m587.7 7227h4.96v14.41h-4.96z" fill="#b2bdc6"/>
     <path d="m565.6 7268h-4.96v10.16h4.96z" fill="#546076"/>
     <g transform="translate(659.1 7158)">
      <path d="m0 0c-5.113 5.113-11.91 7.93-19.14 7.93-7.23 0-14.03-2.817-19.14-7.93l-15.61 15.61c4.688 4.686 10.16 8.319 16.26 10.8 5.891 2.39 12.11 3.599 18.49 3.599 6.377 0 12.6-1.209 18.49-3.599 6.103-2.476 11.57-6.109 16.26-10.8z" fill="#546076"/>
     </g>
     <g transform="translate(625.5 7172)">
      <path d="m0 0c.47.202.668.5.527.83l-.007.016c-.127.304-.454.403-.975.18l-1.186-.502.442-1.033zm-1.125 2.028c.473.2.668.472.527.801l-.007.016c-.127.303-.444.377-.907.181l-1.009-.428.417-.985zm-3.439 1.174 2.873 1.223c.705.298 1.277.333 1.745.143.317-.128.581-.364.745-.75l.003-.016c.276-.648.073-1.189-.332-1.616.776.064 1.372-.137 1.694-.896l.008-.018c.406-.96-.127-1.878-1.465-2.444l-2.891-1.23z" fill="#f99d00"/>
     </g>
     <g transform="translate(651.7 7173)">
      <path d="m0 0 1.273.72c.395-.66.934-1.129 1.592-1.379.424-.157.707-.097.799.147l.006.016c.088.236-.049.438-.756.907-1.109.733-1.916 1.425-1.477 2.6l.005.015c.4 1.058 1.525 1.509 2.894.995.967-.364 1.627-.908 2.06-1.636l-1.209-.82c-.382.562-.882.971-1.386 1.16-.381.145-.629.051-.707-.152l-.004-.016c-.1-.262.053-.449.775-.924 1.203-.777 1.86-1.506 1.459-2.573l-.008-.016c-.433-1.166-1.615-1.511-3-.991-1.007.379-1.851 1.057-2.316 1.947" fill="#f99d00"/>
     </g>
     <g transform="translate(639.2 7180)">
      <path d="m0 0h-1.829v1.478h5.343v-1.478h-1.828v-8.162h-1.686z" fill="#f99d00"/>
     </g>
     <g transform="translate(646.8 7174)">
      <path d="m0 0-1.089 1.941 1.942 1.092 1.091-1.941z" fill="#f99d00"/>
     </g>
     <g transform="translate(633 7174)">
      <path d="m0 0 1.091 1.941-1.943 1.092-1.089-1.941z" fill="#f99d00"/>
     </g>
    </g>
   </g>
  </g>
 </g>
</svg>
