<svg xmlns="http://www.w3.org/2000/svg" viewBox="0 0 205.11 63"><defs><style>.cls-1{fill:#41ca75;}.cls-2{fill:#4a668c;}</style></defs><g id="Réteg_2" data-name="Réteg 2"><g id="Layer_1" data-name="Layer 1"><path class="cls-1" d="M58.76,3.39a49.21,49.21,0,0,0-8.3,2.93l-5,2.14,2,4.55,5-2.18C52.82,10.68,74.56.47,87,13c15.59,15.62,34.86,7.28,39.75,2.64L123.38,12C121,14.3,104.63,23.57,90.55,9.47,84.29,3.2,75.32.69,64.6,2.21A51,51,0,0,0,58.76,3.39Z"/><path class="cls-1" d="M67,40.8a50.89,50.89,0,0,1,8.49,2.32l5.09,1.79-1.65,4.68-5.18-1.82C73.42,47.65,51,39,39.46,52.39,25,69.08,5.21,62.14,0,57.87L3.15,54c2.57,2.11,19.52,10.18,32.56-4.9,5.79-6.7,14.56-9.85,25.36-9.1A51.6,51.6,0,0,1,67,40.8Z"/><path class="cls-1" d="M51.82,6.24a34.42,34.42,0,0,0-7.74,3l2.48,4.29C47.39,13,67.16,2,83.14,20.78c18.73,22,41.64,8.29,41.87,8.14l-2.6-4.22c-.79.48-19.56,11.59-35.49-7.14C74.78,3.3,60.45,4,51.82,6.24Z"/><path class="cls-1" d="M137.09,18.88a49.54,49.54,0,0,0-8.31,2.93L123.84,24l2,4.55,5-2.19c.31-.14,22-10.35,34.52,2.15,15.59,15.61,34.87,7.27,39.75,2.64l-3.41-3.6C199.28,29.79,183,39.06,168.87,25c-6.25-6.27-15.23-8.78-26-7.26A50.29,50.29,0,0,0,137.09,18.88Z"/><path class="cls-2" d="M135.27,4.55A48.89,48.89,0,0,0,127.69,9l-4.43,3.06,2.83,4.08,4.51-3.12c.27-.21,19.6-14.46,34.27-4.63,18.34,12.28,35.61.34,39.51-5.16l-4-2.87c-1.93,2.72-16.14,15-32.7,3.91C160.27-.62,151-1.34,140.77,2.24A52.39,52.39,0,0,0,135.27,4.55Z"/><path class="cls-2" d="M130.14,21.72a35,35,0,0,0-7.74,3L124.88,29c.83-.48,20.61-11.49,36.58,7.29,18.74,22,41.64,8.29,41.87,8.14l-2.6-4.22c-.78.48-19.56,11.59-35.49-7.14C153.1,18.79,138.77,19.46,130.14,21.72Z"/></g></g></svg>