<svg xmlns="http://www.w3.org/2000/svg" viewBox="0 0 276.52 144.23"><defs><style>.cls-1{fill:#4a668c;}.cls-2{fill:#41ca75;}</style></defs><g id="Réteg_2" data-name="Réteg 2"><g id="Layer_1" data-name="Layer 1"><path class="cls-1" d="M212.83,96.79c4,0,10.37-2.43,11.1-2.71l-1.8-4.63c-2.49,1-7.27,2.47-9.49,2.37-2.84-.13-8.76-.4-13.48-6.21l-3.85,3.13c6.12,7.53,13.82,7.89,17.1,8Z"/><path class="cls-1" d="M139.3,107.74c2-1.76,6-4.8,8.12-5.46,2.72-.85,8.37-2.61,14.79,1.24l2.55-4.25c-8.32-5-15.67-2.71-18.81-1.73-3.82,1.19-9.3,5.93-9.92,6.47Z"/><path class="cls-2" d="M205.84,112.52a50.06,50.06,0,0,0,8.78-.72L220,111l-.76-4.9-5.42.84c-.33.06-24,4.42-32.85-10.84C169.81,77,149.05,80.18,143.15,83.42l2.39,4.35c2.92-1.6,21.06-6.42,31.1,10.8,4.46,7.66,12.5,12.36,23.25,13.62A52.91,52.91,0,0,0,205.84,112.52Z"/><path class="cls-2" d="M207.4,74.25a51.1,51.1,0,0,1-7.63-4.4l-4.46-3,2.78-4.11,4.54,3.08C202.9,66,222.39,80,237,70c18.19-12.48,35.6-.74,39.56,4.71l-4,2.91c-2-2.69-16.3-14.81-32.74-3.53-7.3,5-16.58,5.83-26.84,2.36A51.85,51.85,0,0,1,207.4,74.25Z"/><path class="cls-2" d="M213.28,111.53a35.67,35.67,0,0,0,8.24-.89l-1.31-4.79c-.92.25-22.85,5.88-33.53-16.34C174.16,63.46,148.51,70.92,148.25,71l1.45,4.74c.88-.26,21.86-6.24,32.51,15.92C190.33,108.54,204.36,111.53,213.28,111.53Z"/><path class="cls-2" d="M134,77.65a50.06,50.06,0,0,0,8.78-.72l5.33-.82-.76-4.9L142,72c-.33.07-23.95,4.42-32.85-10.84C98,42.14,77.23,45.31,71.33,48.55l2.38,4.35c2.93-1.6,21.07-6.42,31.11,10.8,4.46,7.65,12.5,12.36,23.25,13.61A50.77,50.77,0,0,0,134,77.65Z"/><path class="cls-1" d="M132.14,92a51.07,51.07,0,0,0,8.47-2.41l5.06-1.85L144,83.05l-5.15,1.88c-.31.13-22.63,9-34.33-4.23-14.61-16.53-34.36-9.37-39.52-5l3.19,3.8c2.56-2.15,19.41-10.41,32.61,4.52,5.87,6.64,14.68,9.69,25.47,8.82A50.82,50.82,0,0,0,132.14,92Z"/><path class="cls-1" d="M141.46,76.66a34.68,34.68,0,0,0,8.24-.9L148.39,71c-.93.25-22.85,5.88-33.53-16.34-12.52-26-38.17-18.59-38.43-18.51l1.45,4.74c.88-.26,21.86-6.24,32.51,15.92C118.51,73.67,132.54,76.66,141.46,76.66Z"/><path class="cls-2" d="M63.27,42.57a50.19,50.19,0,0,0,8.78-.72L77.37,41l-.76-4.9L71.19,37c-.33.06-23.95,4.42-32.84-10.85C27.24,7.06,6.48,10.23.57,13.47L3,17.82c2.92-1.6,21.07-6.42,31.1,10.8C38.53,36.28,46.57,41,57.32,42.23A50.65,50.65,0,0,0,63.27,42.57Z"/><path class="cls-2" d="M70.71,41.58a34.78,34.78,0,0,0,8.24-.9L77.64,35.9c-.93.25-22.85,5.88-33.53-16.34C31.58-6.49,5.94,1,5.68,1.05L7.12,5.79C8,5.53,29-.45,39.64,21.71,47.75,38.59,61.79,41.58,70.71,41.58Z"/><path class="cls-2" d="M4.79,1.25,0,2V7L.22,7l5.33-.82Z"/><polygon class="cls-2" points="0 18.89 3.09 17.76 1.4 13.1 0 13.61 0 18.89"/><path class="cls-2" d="M0,6.69a34.77,34.77,0,0,0,7.13-.88L5.82,1A29.22,29.22,0,0,1,0,1.81Z"/><path class="cls-2" d="M70.57,49l-5,2.3c-.3.15-21.82,10.81-34.55-1.42C20.36,39.58,8.26,40.14,0,43.05v5.33c6.44-2.79,17.45-4.71,27.59,5C34,59.55,43,61.87,53.69,60.13a51.19,51.19,0,0,0,5.81-1.31,50,50,0,0,0,8.24-3.1l4.9-2.25Z"/><path class="cls-1" d="M71.49,48.46C70.67,49,51.13,60.39,34.76,42,22.24,27.84,8.27,29,0,31.53v5.14c6.64-2.46,19.41-4.55,31.05,8.57,12.44,14,26.75,13,35.33,10.59a34.91,34.91,0,0,0,7.68-3.12Z"/><path class="cls-2" d="M137.5,138.86a48.91,48.91,0,0,0,8.24-3.1l4.9-2.25-2.08-4.5-5,2.29c-.3.15-21.82,10.82-34.56-1.42-15.91-15.29-35-6.55-39.79-1.81l3.49,3.53c2.37-2.34,18.5-12,32.87,1.85,6.39,6.14,15.41,8.46,26.09,6.72A51.38,51.38,0,0,0,137.5,138.86Z"/><path class="cls-2" d="M144.38,135.87a34.91,34.91,0,0,0,7.68-3.12l-2.57-4.24c-.83.49-20.36,11.92-36.73-6.52-19.19-21.62-41.8-7.42-42-7.27l2.69,4.17c.78-.5,19.31-12,35.63,6.39C121.49,139.29,135.8,138.32,144.38,135.87Z"/><path class="cls-2" d="M69.93,115.16l-5,2.29c-.3.15-21.82,10.82-34.56-1.42C20,106,8.24,106.32,0,109v5.28c6.51-2.64,17.14-4.13,27,5.3,6.39,6.14,15.41,8.46,26.09,6.72A53.64,53.64,0,0,0,58.87,125a50,50,0,0,0,8.24-3.1l4.9-2.25Z"/><path class="cls-1" d="M69.92,127.48l-4.44,3.23c-.27.2-19.3,14.86-34.18,5.34-12.21-7.82-23.75-5.18-31.3-.87v5.91c5.63-4.12,16.37-8.71,28.63-.86,7.46,4.77,16.77,5.29,26.91,1.49A50.8,50.8,0,0,0,61,139.31a49.26,49.26,0,0,0,7.48-4.65l4.37-3.16Z"/><path class="cls-2" d="M70.86,114.66c-.83.5-20.36,11.92-36.73-6.52C21.92,94.39,8.33,95.14,0,97.54v5.1c6.8-2.34,19.14-3.92,30.42,8.8,12.43,14,26.75,13,35.33,10.59a34.88,34.88,0,0,0,7.68-3.13Z"/><path class="cls-2" d="M64.31,76.14l-4.58,3c-.27.2-19.93,14-34.37,3.83C16.21,76.55,7.2,76.34,0,78.4v5.16c6-2.11,14-2.5,22.5,3.49,7.25,5.09,16.52,6,26.81,2.68a49.88,49.88,0,0,0,5.55-2.17,49.19,49.19,0,0,0,7.68-4.31l4.5-3Z"/><path class="cls-2" d="M65.15,75.51c-.74.62-18.33,14.87-37.29-.88C17.53,66.05,7.65,65.23,0,66.82v5c6.57-1.59,15.34-1.13,24.69,6.63,14.41,12,28.41,8.84,36.52,5.12a34.63,34.63,0,0,0,7.12-4.24Z"/></g></g></svg>